<?xml version="1.0" standalone="no"?>
<!DOCTYPE svg PUBLIC "-//W3C//DTD SVG 20010904//EN"
 "http://www.w3.org/TR/2001/REC-SVG-20010904/DTD/svg10.dtd">
<svg version="1.0" xmlns="http://www.w3.org/2000/svg"
 width="700.000000pt" height="700.000000pt" viewBox="0 0 700.000000 700.000000"
 preserveAspectRatio="xMidYMid meet">
<metadata>
Created by potrace 1.11, written by Peter Selinger 2001-2013
</metadata>
<g transform="translate(0.000000,700.000000) scale(0.100000,-0.100000)"
fill="#000000" stroke="none">
<path d="M1553 6989 c-701 -83 -1274 -561 -1477 -1233 -76 -249 -71 -93 -71
-2261 l0 -1940 23 -117 c131 -684 628 -1216 1292 -1383 222 -56 174 -55 2180
-55 2006 0 1958 -1 2180 55 715 180 1234 784 1310 1525 8 72 10 693 8 1990
l-3 1885 -23 113 c-94 473 -359 875 -745 1133 -201 134 -416 223 -657 271
l-115 23 -1915 1 c-1053 1 -1947 -2 -1987 -7z m1287 -2024 c0 -338 2 -615 5
-615 3 0 31 13 63 29 238 118 535 174 805 150 403 -34 738 -193 1012 -480 202
-212 332 -461 397 -762 32 -149 32 -456 -1 -607 -104 -488 -401 -874 -836
-1092 -257 -129 -549 -185 -826 -159 -191 17 -397 74 -549 151 -33 17 -62 30
-65 30 -3 0 -5 -27 -5 -60 l0 -60 -490 0 -490 0 0 2045 0 2045 490 0 490 0 0
-615z"/>
<path d="M3458 3720 c-288 -52 -525 -274 -594 -555 -23 -93 -23 -267 0 -360
61 -253 256 -456 516 -536 99 -31 288 -33 398 -5 199 51 381 198 472 381 109
218 108 461 -2 685 -34 70 -58 102 -137 181 -79 78 -111 102 -181 136 -47 23
-112 49 -145 58 -70 19 -259 28 -327 15z"/>
</g>
</svg>
