<svg width="260" height="67" viewBox="0 0 0 0" xmlns="http://www.w3.org/2000/svg">
    <path d="M184.6 55.5998C186.4 55.5998 187.6 56.3998 187.7 58.0998H188.7C188.6 55.7998 187 54.6998 184.7 54.6998C182.4 54.6998 180.9 55.7998 180.9 57.6998C180.9 59.7768 182.661 60.1909 184.344 60.5867L184.4 60.5998C186.9 61.1998 188.1 61.4998 188.1 62.9998C188.1 64.3998 186.9 65.2998 185 65.2998C182.9 65.2998 181.5 64.2998 181.5 62.2998H180.5V62.3998C180.5 64.7998 182.2 66.1998 184.9 66.1998C186.9 66.1998 189 65.3998 189 62.9998C189 60.7998 187.2 60.2998 184.8 59.7998C183 59.3998 181.8 59.0998 181.8 57.6998C181.8 56.3998 182.9 55.5998 184.6 55.5998Z" fill="white"/>
    <path d="M11 65.8998H9.89996L7.69995 58.0998C7.59995 57.6998 7.49997 57.3249 7.39999 56.9499C7.29999 56.5749 7.19998 56.1998 7.09998 55.7998C7.07779 55.8774 7.0556 55.9562 7.03345 56.036L6.99884 56.1613L6.96844 56.2724L6.92313 56.4398L6.87799 56.6078L6.79999 56.8998C6.69998 57.2748 6.59998 57.6498 6.49997 57.9998L4.29996 65.7998H3.19995L0.199951 54.7998H1.29996L3.39996 62.3998C3.43256 62.5303 3.46515 62.6581 3.49734 62.7841L3.50018 62.7953L3.50092 62.7979C3.66473 63.4393 3.81686 64.035 3.89996 64.6998C3.99997 63.8998 4.19998 63.1998 4.49997 62.3998L6.69995 54.7998H7.89996L10.1 62.5998C10.3 63.1998 10.5 64.0998 10.6 64.7998C10.7111 64.4111 10.7912 64.0224 10.8748 63.6166L10.8751 63.6155L10.8754 63.6143L10.8758 63.612C10.9425 63.2885 11.0115 62.9539 11.1 62.5998L13.2 54.7998H14.3L11 65.8998Z" fill="white"/>
    <path d="M23.6 65.8999H24.7V54.8999H23.6V65.8999Z" fill="white"/>
    <path d="M42.9 65.8998H44.1V54.7998H43.1V61.6998C43.1 62.1998 43.125 62.6748 43.15 63.1498C43.175 63.6248 43.2 64.0998 43.2 64.5998C42.8 63.7998 42.3 62.9998 41.8 62.2998L36.6 54.7998H35.4V65.7998H36.4V58.6998C36.4 57.7998 36.4 56.9998 36.3 56.0998C36.5666 56.6998 36.9222 57.2109 37.2777 57.722C37.4555 57.9776 37.6333 58.2332 37.8 58.4998L42.9 65.8998Z" fill="white"/>
    <path fill-rule="evenodd" clip-rule="evenodd" d="M75.1 65.8998H76.3L72.1 54.7998H70.9L66.4 65.8998H67.5L68.8 62.3998H73.8L75.1 65.8998ZM69.1 61.5998L71.3 55.8998L73.5 61.5998H69.1Z" fill="white"/>
    <path d="M88.3 55.7999H92.1V54.8999H83.3V55.7999H87.2V65.8999H88.3V55.7999Z" fill="white"/>
    <path d="M118.1 55.7999H121.9V54.8999H113.1V55.7999H117V65.8999H118.1V55.7999Z" fill="white"/>
    <path d="M139.1 65.8999H140.1V54.8999H139.1V59.6999H132.5V54.8999H131.4V65.8999H132.5V60.5999H139.1V65.8999Z" fill="white"/>
    <path d="M151.8 55.7999H158.4V54.9999H150.8V65.9999H158.5V65.0999H151.8V60.6999H158V59.7999H151.8V55.7999Z" fill="white"/>
    <path d="M206.8 55.7999H202.9V65.8999H201.9V55.7999H198V54.8999H206.8V55.7999Z" fill="white"/>
    <path fill-rule="evenodd" clip-rule="evenodd" d="M223.9 65.8998H222.7L221.4 62.3998H216.4L215.1 65.8998H213.9L218.4 54.7998H219.6L223.9 65.8998ZM218.9 55.8998L216.7 61.5998H221.1L218.9 55.8998Z" fill="white"/>
    <path fill-rule="evenodd" clip-rule="evenodd" d="M238.3 54.8999C240.2 54.8999 241.7 55.7999 241.7 57.8999C241.7 59.2999 240.9 60.2999 239.5 60.5999C240.9 60.7999 241.3 61.5999 241.4 63.0999C241.4 63.5999 241.4 65.3999 241.9 65.8999H240.9C240.6 65.4999 240.6 63.9999 240.6 63.4999C240.5 61.3999 239.7 60.9999 237.7 60.9999H234.5V65.8999H233.4V54.8999H238.3ZM234.4 60.1999H237.5C239.1 60.1999 240.7 59.8999 240.7 57.9999C240.7 56.2999 239.4 55.8999 238 55.8999H234.4V60.1999Z" fill="white"/>
    <path d="M259.7 55.7999H255.9V65.8999H254.8V55.7999H250.9V54.8999H259.7V55.7999Z" fill="white"/>
</svg>
