<svg width="218" height="104" viewBox="0 0 218 104" fill="none" xmlns="http://www.w3.org/2000/svg">
<path d="M0.5 26.897C0.512792 26.905 0.525585 26.913 0.538378 26.9209C0.525394 26.9101 0.512613 26.9021 0.5 26.897Z" fill="#FAFAFA"/>
<path d="M0.538378 26.9209C0.701455 27.057 0.896555 27.6441 1.19393 28.5391C2.29908 31.865 4.8168 39.442 12.353 43.9166C16.304 46.0441 24.8137 46.6519 27.0931 45.7402C26.7314 45.51 26.3057 45.2371 25.8227 44.9276C21.8412 42.3757 13.9664 37.3286 5.97064 33.1274C13.8726 36.0147 20.5589 39.6617 26.4853 44.5245C21.5427 34.5363 15.6232 32.642 9.43614 30.662C6.50515 29.7241 3.51409 28.7669 0.538378 26.9209Z" fill="#FAFAFA"/>
<path d="M112.294 86.5666C116.706 90.1949 119.392 93.8777 121.157 97.4068C120.321 97.7107 119.561 98.0526 118.801 98.3945C118.042 98.7364 117.282 99.0784 116.446 99.3823C114.859 95.5023 112.248 92.0829 109 89.1834C105.752 92.0829 103.141 95.5023 101.554 99.3823C100.975 99.1508 100.419 98.8972 99.8503 98.6384C98.9266 98.2177 97.9723 97.7831 96.8432 97.4068C98.6078 93.8777 101.294 90.1949 105.706 86.5666C104.245 85.532 102.701 84.5852 101.098 83.7303C93.3081 79.592 85.3233 77.111 77.1435 74.5694C75.111 73.9379 73.0664 73.3026 71.0098 72.6372C65.3872 70.8137 59.7647 68.8382 54.1422 66.1029C47.9118 62.7597 42.1372 58.9607 36.8186 54.098C30.4363 48.3235 22.8383 39.2059 21.1667 30.0882C28.9167 45.5882 40.4657 55.3137 53.3824 62C61.2382 66.008 69.5592 68.5361 77.8546 71.0564C85.2846 73.3137 92.6941 75.5648 99.7303 78.8676C103.352 80.5691 106.409 82.3207 109 84.0973C111.591 82.3207 114.648 80.5691 118.27 78.8676C125.306 75.5648 132.715 73.3137 140.145 71.0564C148.441 68.5361 156.762 66.008 164.618 62C177.534 55.3137 189.083 45.5882 196.833 30.0882C195.162 39.2059 187.564 48.3235 181.181 54.098C175.863 58.9607 170.088 62.7597 163.858 66.1029C158.235 68.8382 152.613 70.8137 146.99 72.6372C144.934 73.3026 142.889 73.9379 140.856 74.5694C132.677 77.111 124.692 79.5919 116.902 83.7303C115.299 84.5852 113.755 85.532 112.294 86.5666Z" fill="#FAFAFA"/>
<path d="M20.9943 6.10635C19.8722 4.09039 18.7449 2.06512 17.8235 0C17.4887 4.35284 16.3258 7.59149 15.311 10.4174C13.102 16.569 11.5954 20.7646 20.8628 30.2402C18.7353 22.0343 17.2157 12.7647 18.1275 3.49512C18.5834 16.2598 20.2549 25.0735 22.0784 30.2402C29.41 21.226 25.2392 13.7327 20.9943 6.10635Z" fill="#FAFAFA"/>
<path d="M93.541 44.8674C92.4724 42.7856 91.34 40.5795 90.3088 38.1421C87.4215 40.1176 83.0146 51.6666 83.3185 57.745C83.7744 63.9754 87.5734 70.9656 89.7009 73.8529C87.8774 64.7352 87.4215 54.8578 88.9411 44.8284C88.9411 59.1127 90.6127 68.6862 92.2842 74.1568C95.7793 70.2058 97.7548 64.1274 97.9068 58.2009C98.0119 53.5771 95.9368 49.5346 93.541 44.8674Z" fill="#FAFAFA"/>
<path d="M63.0022 91.5192C60.4331 95.4347 57.795 99.4553 54.598 101.054C60.5245 106.372 73.1372 101.054 78.4559 96.3431C83.3186 91.7842 86.2058 82.6666 86.8137 79.9313C82.2549 82.2107 75.1127 86.9215 67.2107 94.2156C72.2254 87.9852 78.6077 82.5146 84.8381 78.7156C79.8234 78.1078 73.7451 80.2352 69.3382 83.5783C67.0999 85.274 65.0734 88.3625 63.0022 91.5192Z" fill="#FAFAFA"/>
<path d="M73.1372 68.9902C76.4804 65.3431 79.0637 59.2646 79.0637 52.4264C79.2736 49.7671 78.001 46.1731 76.6708 42.4163C75.1125 38.0155 73.4751 33.3913 74.049 29.7843C63.9221 37.8564 64.2847 44.7945 64.5951 50.7356C64.6061 50.9459 64.617 51.1549 64.6274 51.3627C64.9313 58.5049 70.098 66.2548 71.6176 68.3823C69.3382 58.6568 68.2744 48.3235 69.946 37.3823C69.7941 52.5784 71.4657 63.6715 73.1372 68.9902Z" fill="#FAFAFA"/>
<path d="M41.4673 79.0854C37.9831 82.1325 34.4073 85.2596 30.7402 86.0097C40.1618 92.0881 51.5588 89.5048 56.4216 87.0734C61.8922 84.1862 67.3627 76.4362 68.8823 73.549C63.8676 74.1568 54.446 77.3479 43.049 82.8185C50.647 77.4999 59.0049 74.1568 67.0588 72.3333C61.7402 70.5097 55.3578 70.9656 49.8872 73.0931C47.1425 74.1223 44.3359 76.5768 41.4673 79.0854Z" fill="#FAFAFA"/>
<path d="M56.3441 36.3904C54.4235 32.8644 52.4198 29.1857 52.0147 25.3774C48.5196 28.2647 44.7206 39.2058 46.2402 46.5C47.4559 52.1225 51.7108 59.4166 54.1422 61.848C51.4069 53.1862 50.0392 42.0931 50.4951 31.9117C51.7108 46.6519 54.446 57.745 56.5735 62.6078C59.4608 58.6568 61.1323 51.8186 60.0686 45.2843C59.643 42.447 58.0254 39.4772 56.3441 36.3904Z" fill="#FAFAFA"/>
<path d="M23.2137 56.0371C19.336 56.5917 15.3618 57.16 12.353 56.0735C12.4492 56.2041 12.5452 56.3345 12.641 56.4647C16.7831 62.0931 20.6439 67.3392 30.8921 68.2303C36.0588 68.6862 43.5049 64.5833 45.9363 63.2156C41.5294 62.3039 31.8039 61.0882 21.3186 60.1764C29.6765 59.7205 37.2745 59.8725 44.5686 62C40.6176 58.6568 36.9706 56.6813 31.9559 55.6176C29.4941 55.1389 26.3862 55.5834 23.2137 56.0371Z" fill="#FAFAFA"/>
<path d="M40.958 20.8599C40.5191 18.5996 40.0559 16.2136 39.7059 13.6765C38.5831 16.0468 36.7947 17.905 35.0236 19.7451C32.48 22.3878 29.9725 24.9932 29.5245 29.0245C28.7647 35.4068 30.8922 42.701 32.2598 45.4363C32.7157 37.0784 34.5392 27.3529 38.1863 18.9951C34.9951 31 33.0196 41.0294 33.1715 46.348C36.6666 44.2205 40.4657 39.5098 41.6814 35.7107C42.98 31.2738 42.0437 26.4516 40.958 20.8599Z" fill="#FAFAFA"/>
<path d="M217.486 26.9055C214.503 28.7616 211.503 29.7215 208.564 30.662C202.377 32.642 196.457 34.5363 191.515 44.5245C197.441 39.6617 204.127 36.0147 212.029 33.1274C204.034 37.3286 196.159 42.3758 192.177 44.9276C191.694 45.2372 191.269 45.51 190.907 45.7402C193.186 46.6519 201.696 46.0441 205.647 43.9166C213.399 39.3141 215.937 31.4291 216.956 28.2643C217.206 27.4879 217.365 26.9955 217.486 26.9055Z" fill="#FAFAFA"/>
<path d="M197.028 6.06962C198.142 4.06578 199.261 2.05258 200.176 0C200.556 4.31623 201.72 7.53692 202.735 10.346C204.973 16.5366 206.488 20.728 197.289 30.2402C199.417 22.0343 200.936 12.7647 200.025 3.49512C199.569 16.2598 197.897 25.0735 196.074 30.2402C188.61 21.2115 192.781 13.7087 197.028 6.06962Z" fill="#FAFAFA"/>
<path d="M124.611 44.8674C125.68 42.7856 126.812 40.5796 127.843 38.1421C130.579 40.1176 135.137 51.6666 134.833 57.745C134.378 63.9754 130.578 70.9656 128.451 73.8529C130.275 64.7352 130.73 54.8578 129.211 44.8284C129.211 59.1127 127.539 68.6862 125.868 74.1568C122.373 70.2058 120.397 64.1274 120.245 58.2009C120.14 53.5771 122.215 49.5347 124.611 44.8674Z" fill="#FAFAFA"/>
<path d="M154.998 91.5192C157.567 95.4347 160.205 99.4553 163.402 101.054C157.475 106.372 144.863 101.054 139.544 96.3431C134.681 91.7842 131.794 82.6666 131.186 79.9313C135.745 82.2107 142.887 86.9215 150.789 94.2156C145.775 87.9852 139.392 82.5146 133.162 78.7156C138.177 78.1078 144.255 80.2352 148.662 83.5783C150.9 85.2741 152.927 88.3625 154.998 91.5192Z" fill="#FAFAFA"/>
<path d="M145.015 68.9902C141.672 65.3431 139.088 59.2646 139.088 52.4264C138.804 49.7241 140.117 46.0566 141.485 42.2339C143.041 37.888 144.669 33.3415 144.103 29.7843C154.23 37.8564 153.867 44.7945 153.557 50.7356C153.546 50.9459 153.535 51.1549 153.525 51.3627C153.221 58.5049 148.054 66.2548 146.534 68.3823C148.814 58.6568 149.877 48.3235 148.206 37.3823C148.358 52.5784 146.686 63.6715 145.015 68.9902Z" fill="#FAFAFA"/>
<path d="M176.533 79.0854C180.017 82.1325 183.593 85.2596 187.26 86.0097C177.838 92.0881 166.593 89.5048 161.578 87.0734C156.108 84.1862 150.637 76.4362 149.118 73.549C154.132 74.1568 163.554 77.3479 174.951 82.8185C167.353 77.4999 158.995 74.1568 150.941 72.3333C156.26 70.5097 162.642 70.9656 168.113 73.0931C170.857 74.1223 173.664 76.5768 176.533 79.0854Z" fill="#FAFAFA"/>
<path d="M161.656 36.3904C163.576 32.8644 165.58 29.1857 165.985 25.3774C169.48 28.2647 173.431 39.2058 171.76 46.5C170.544 52.1225 166.289 59.4166 163.858 61.848C166.593 53.1862 167.961 42.0931 167.505 31.9117C166.289 46.6519 163.554 57.745 161.426 62.6078C158.539 58.6568 156.868 51.8186 157.931 45.2843C158.357 42.447 159.975 39.4772 161.656 36.3904Z" fill="#FAFAFA"/>
<path d="M194.938 56.0371C198.816 56.5917 202.79 57.16 205.799 56.0735C205.584 56.3558 205.37 56.6373 205.157 56.9176C201.019 62.3719 197.233 67.3632 187.26 68.2303C182.093 68.6862 174.647 64.5833 172.216 63.2156C176.623 62.3039 186.348 61.0882 196.833 60.1764C188.627 59.7205 180.877 59.8725 173.583 62C177.534 58.6568 181.181 56.6813 186.196 55.6176C188.658 55.1389 191.766 55.5834 194.938 56.0371Z" fill="#FAFAFA"/>
<path d="M177.042 20.8598C177.481 18.5996 177.944 16.2136 178.294 13.6765C179.417 16.0468 181.205 17.905 182.976 19.7451C185.52 22.3878 188.028 24.9932 188.475 29.0245C189.235 35.4068 187.108 42.701 185.74 45.4363C185.284 37.0784 183.461 27.3529 179.814 18.9951C183.005 31 184.98 41.0294 184.828 46.348C181.333 44.2205 177.534 39.5098 176.319 35.7107C175.02 31.2738 175.956 26.4516 177.042 20.8598Z" fill="#FAFAFA"/>
</svg>
