<svg width="600" height="600" viewBox="0 0 600 600" fill="none" xmlns="http://www.w3.org/2000/svg">
<rect width="600" height="600" rx="300" fill="black"/>
<path d="M288.623 80.7007C289.304 81.7226 290.462 82.2677 291.961 82.1995C293.119 82.1314 294.073 81.6545 294.754 80.5645C295.436 79.4745 295.776 78.1119 295.708 76.2044C295.64 74.2968 295.231 72.9343 294.414 72.0487C293.596 71.163 292.642 70.7543 291.484 70.7543C290.258 70.8224 289.236 71.2993 288.487 72.3212C287.737 73.3431 287.397 74.7737 287.465 76.6132C287.533 78.3163 287.873 79.6107 288.623 80.7007Z" fill="#FAFAFA"/>
<path d="M259.533 85.8102C258.783 85.9465 258.17 85.8784 257.557 85.5377C256.944 85.1971 256.603 84.7202 256.535 84.0389C256.331 83.0852 256.603 82.3358 257.285 81.7908C257.693 81.4501 258.307 81.1095 259.192 80.837L260.623 80.3601C260.988 80.2559 261.313 80.1118 261.659 79.9583C261.765 79.9112 261.873 79.8631 261.985 79.8151C262.462 79.6107 262.803 79.4063 263.075 79.1338L263.484 81.0414C263.757 82.6083 263.212 83.8346 261.985 84.7202C261.236 85.2652 260.418 85.674 259.533 85.8102Z" fill="#FAFAFA"/>
<path d="M180.37 106.316C180.983 106.657 181.664 107.27 182.346 108.156L175.397 112.584C174.715 111.494 174.511 110.336 174.715 109.246C174.92 108.156 175.533 107.27 176.487 106.657C177.849 105.771 179.144 105.635 180.37 106.316Z" fill="#FAFAFA"/>
<path d="M143.99 147.873C143.513 148.35 142.9 148.691 142.219 148.759C141.538 148.827 140.993 148.623 140.448 148.146C139.766 147.465 139.562 146.715 139.766 145.83C139.903 145.353 140.243 144.74 140.788 143.99L141.742 142.764L142.56 141.538C142.832 141.129 142.968 140.72 143.036 140.38L144.467 141.81C145.557 142.9 145.83 144.127 145.353 145.625C145.08 146.511 144.603 147.26 143.99 147.873Z" fill="#FAFAFA"/>
<path d="M123.552 146.307C122.939 146.579 122.258 147.124 121.577 147.942L118.034 152.165L123.484 156.73L127.027 152.506C127.844 151.552 128.253 150.599 128.389 149.713C128.457 148.759 128.049 147.874 126.959 146.988C125.8 146.034 124.642 145.83 123.552 146.307Z" fill="#FAFAFA"/>
<path d="M240.73 88.6034C241.207 87.4453 241.139 85.9465 240.594 84.0389C240.253 82.8808 239.776 81.9951 239.231 81.2458C238.141 79.8832 236.779 79.4063 235.075 79.8832C233.372 80.3601 232.487 81.5864 232.35 83.4258C232.282 84.4477 232.418 85.6059 232.827 86.9684C233.168 88.0584 233.577 88.9441 234.19 89.6253C235.28 90.9197 236.642 91.3285 238.277 90.8516C239.436 90.511 240.253 89.7616 240.73 88.6034Z" fill="#FAFAFA"/>
<path d="M375.28 95.4161C374.599 95.2117 374.054 94.7348 373.713 94.1898C373.372 93.5767 373.304 92.9635 373.509 92.2822C373.849 91.3966 374.462 90.8516 375.348 90.7153C375.825 90.6472 376.574 90.7153 377.46 90.9197L378.959 91.2604C379.436 91.3966 379.912 91.4647 380.389 91.5329C380.934 91.5329 381.343 91.5329 381.684 91.4647L381.002 93.3723C380.457 94.8029 379.436 95.6205 377.869 95.7567C376.983 95.8248 376.097 95.7567 375.28 95.4161Z" fill="#FAFAFA"/>
<path d="M439.659 124.983C438.501 126.55 437.275 127.504 436.049 127.776C434.822 128.049 433.732 127.844 432.779 127.163C431.416 126.141 430.939 124.779 431.348 123.144C431.552 122.258 432.029 121.372 432.71 120.487C433.596 119.328 434.482 118.511 435.299 117.966C436.866 117.012 438.365 117.012 439.728 118.102C441.158 119.192 441.567 120.555 441.09 122.258C440.886 123.144 440.409 124.029 439.659 124.983Z" fill="#FAFAFA"/>
<path d="M451.854 135.474C450.56 136.973 449.265 137.791 448.039 137.995C446.813 138.2 445.791 137.927 444.905 137.11C443.611 135.951 443.202 134.589 443.747 133.022C444.02 132.204 444.565 131.387 445.314 130.501C446.268 129.411 447.153 128.662 448.039 128.185C449.674 127.299 451.173 127.436 452.467 128.594C453.762 129.752 454.102 131.182 453.489 132.818C453.217 133.703 452.672 134.589 451.854 135.474Z" fill="#FAFAFA"/>
<path d="M463.299 146.579C462.141 147.601 460.983 148.419 459.62 148.827C458.258 149.236 457.032 148.895 456.01 147.805C454.988 146.715 454.579 145.557 454.852 144.331C455.124 143.105 455.805 141.878 456.964 140.788C458.122 139.63 459.416 138.881 460.71 138.54C462.005 138.2 463.163 138.608 464.253 139.698C465.411 140.925 465.752 142.287 465.275 143.718C464.934 144.672 464.321 145.625 463.299 146.579Z" fill="#FAFAFA"/>
<path fill-rule="evenodd" clip-rule="evenodd" d="M566.361 213.431L465.325 246.268C442.693 176.584 377.229 126.209 300 126.209C222.771 126.209 157.307 176.584 134.675 246.268L33.6391 213.431C70.1023 101.161 175.573 20 300 20C424.427 20 529.898 101.161 566.361 213.431ZM293.801 69.2555C294.277 69.528 294.754 70.0049 295.367 70.6861L295.095 63.1241L297.479 63.056L298.229 83.6302L295.981 83.6983L295.912 81.5864C295.367 82.5402 294.686 83.2214 293.937 83.6302C293.187 84.0389 292.234 84.3114 291.212 84.3114C289.577 84.3796 288.078 83.6983 286.852 82.3358C285.557 80.9732 284.944 79.1338 284.808 76.8175C284.74 74.6375 285.217 72.7299 286.238 71.0949C287.26 69.4599 288.827 68.5742 290.871 68.5061C292.097 68.6423 293.051 68.8467 293.801 69.2555ZM271.387 70.4818L269.002 70.7543L270.501 85.6059L273.022 85.3333L272.204 77.5669C272.068 76.6131 272.068 75.8638 272.136 75.3187C272.204 74.7737 272.477 74.2287 272.818 73.6837C273.294 73.0024 273.839 72.5256 274.521 72.2531C274.861 72.1168 275.338 71.9805 275.951 71.9124C277.109 71.8443 277.995 72.1849 278.54 73.0706C278.813 73.6156 279.085 74.365 279.153 75.2506L280.175 84.6521L282.696 84.3796L281.674 74.8419C281.538 73.3431 281.197 72.1849 280.72 71.4355C279.835 70.0049 278.336 69.4599 276.224 69.6642C275.27 69.7324 274.384 70.0049 273.635 70.4818C272.886 70.9586 272.204 71.6399 271.591 72.5937L271.387 70.4818ZM262.599 76.9538C262.462 77.4307 262.122 77.7032 261.577 77.9076L257.762 79.2701C256.399 79.6788 255.377 80.3601 254.628 81.2458C253.946 82.1314 253.674 83.2895 253.946 84.6521C254.151 85.8783 254.832 86.9003 255.786 87.5134C256.74 88.1265 257.966 88.399 259.328 88.1265C260.487 87.9221 261.44 87.5134 262.326 86.8321C263.144 86.1509 263.757 85.4696 264.165 84.7202C264.37 85.3333 264.574 85.7421 264.847 86.0146C265.392 86.4915 266.005 86.6959 266.891 86.5596C267.231 86.4915 267.504 86.4234 267.708 86.3552C267.74 86.3445 267.774 86.3337 267.81 86.3223C268 86.2621 268.239 86.1866 268.526 86.0146L268.185 84.1752C268.049 84.2433 267.912 84.3114 267.776 84.3114C267.708 84.3114 267.657 84.3285 267.606 84.3455C267.555 84.3625 267.504 84.3796 267.436 84.3796C267.095 84.4477 266.891 84.3796 266.754 84.2433C266.618 84.1071 266.55 83.9027 266.482 83.6302L264.983 75.1144C264.71 73.6837 263.961 72.7981 262.803 72.3212C261.577 71.9124 260.078 71.7762 258.375 72.1168C256.876 72.3893 255.65 73.0024 254.628 73.8881C253.606 74.7737 253.265 76.1363 253.538 77.9757L255.854 77.5669C255.786 76.7494 255.922 76.1363 256.126 75.7275C256.603 74.91 257.421 74.365 258.715 74.1606C259.805 73.9562 260.691 74.0243 261.372 74.2968C262.054 74.5694 262.462 75.1825 262.599 76C262.667 76.4088 262.667 76.6813 262.599 76.9538ZM220.224 76.9538L222.608 76.1363L223.562 78.7932L221.178 79.6107L220.224 76.9538ZM224.448 81.4501L222.063 82.2677L226.968 96.3017L229.353 95.4842L224.448 81.4501ZM206.939 82.0633L204.623 83.017L212.457 101.888L214.774 100.934L211.776 93.5767C211.027 91.7372 210.891 90.3066 211.436 89.3528C211.981 88.399 212.73 87.7178 213.684 87.309C214.842 86.8321 215.796 86.8321 216.545 87.4453C217.022 87.854 217.431 88.5353 217.839 89.5572L221.382 98.2774L223.766 97.3236L220.156 88.4672C219.611 87.1046 218.929 86.1509 218.248 85.5377C216.954 84.4477 215.251 84.3114 213.275 85.129C212.117 85.6059 211.299 86.219 210.754 87.0365C210.414 87.5134 210.141 88.1947 209.869 89.1484L206.939 82.0633ZM200.535 104.749C199.99 104.545 199.513 104.068 199.105 103.319L196.856 104.341C197.538 105.703 198.56 106.589 199.854 107.066C201.148 107.543 202.783 107.338 204.827 106.316C206.667 105.431 207.893 104.273 208.37 102.978C208.847 101.684 208.847 100.457 208.234 99.2312C207.62 98.0049 206.735 97.3236 205.577 97.1874C204.827 97.0511 203.533 97.2555 201.693 97.6642L199.99 98.073C199.241 98.2774 198.628 98.3455 198.219 98.2774C197.47 98.2093 196.925 97.9368 196.652 97.3236C196.448 96.7786 196.448 96.2336 196.72 95.6886C197.061 95.1436 197.606 94.6667 198.491 94.2579C199.786 93.5767 200.876 93.4404 201.693 93.781C202.238 93.9854 202.647 94.3942 202.92 94.8711L205.032 93.8492C204.623 92.9635 203.942 92.2822 202.988 91.8054C201.489 91.056 199.718 91.1922 197.674 92.2141C196.107 92.9635 195.085 93.9854 194.54 95.2117C193.995 96.438 194.063 97.6642 194.676 98.9587C195.221 99.9806 196.107 100.594 197.401 100.73C198.151 100.798 199.173 100.662 200.467 100.389L202.511 99.9124C203.601 99.6399 204.35 99.5718 204.759 99.5718C205.44 99.6399 205.917 99.9805 206.19 100.526C206.599 101.275 206.53 102.024 206.054 102.706C205.577 103.387 204.963 103.932 204.078 104.341C202.647 105.09 201.489 105.158 200.535 104.749ZM186.637 98.4136L184.526 99.5718L191.883 112.584L194.063 111.358L189.839 103.864C189.363 102.978 189.158 101.956 189.363 100.934C189.567 99.8443 190.248 99.0268 191.338 98.4136C191.406 98.3796 191.457 98.3455 191.508 98.3115C191.56 98.2774 191.611 98.2433 191.679 98.2093C191.747 98.1752 191.815 98.1582 191.883 98.1411C191.951 98.1241 192.019 98.1071 192.088 98.073L190.793 95.7567C190.521 95.8248 190.316 95.893 190.248 95.9611C190.18 96.0292 190.112 96.0973 190.044 96.0973C189.158 96.5742 188.613 97.3236 188.273 98.3455C188 99.3674 187.864 100.117 187.932 100.662L186.637 98.4136ZM181.392 104.136C180.574 103.728 179.552 103.591 178.462 103.728C177.372 103.796 176.35 104.136 175.465 104.749C173.693 105.908 172.672 107.406 172.399 109.382C172.127 111.358 172.603 113.333 173.898 115.377C175.192 117.421 176.759 118.647 178.599 119.124C180.37 119.601 182.073 119.328 183.64 118.307C184.253 117.898 184.798 117.489 185.207 117.012C186.024 116.195 186.569 115.241 186.774 114.219C186.91 113.606 186.978 112.925 186.91 112.175C186.91 111.426 186.774 110.745 186.501 110.268L184.389 111.63C184.594 112.311 184.594 112.925 184.526 113.606C184.389 114.764 183.708 115.718 182.618 116.399C181.46 117.148 180.37 117.285 179.28 116.876C178.258 116.467 177.304 115.582 176.418 114.355L185.616 108.496C184.798 107.202 184.117 106.316 183.64 105.839C182.959 105.09 182.209 104.477 181.392 104.136ZM158.91 116.74L157.002 118.17L165.927 130.092L167.971 128.594L163.27 122.326C162.657 121.577 162.248 120.895 162.044 120.419C161.839 119.942 161.703 119.328 161.771 118.715C161.839 117.966 162.112 117.217 162.521 116.672C162.793 116.331 163.134 115.99 163.611 115.65C164.564 114.968 165.518 114.832 166.404 115.309C166.949 115.582 167.494 116.058 168.039 116.808L173.693 124.37L175.737 122.871L170.015 115.173C169.129 113.946 168.243 113.129 167.426 112.72C165.927 111.971 164.36 112.243 162.657 113.538C161.908 114.151 161.294 114.832 160.886 115.582C160.477 116.399 160.272 117.285 160.204 118.443L158.91 116.74ZM150.19 118.375L148.214 120.01L150.939 123.28L149.372 124.574L150.667 126.141L152.234 124.847L158.569 132.477C159.182 133.158 159.864 133.635 160.545 133.839C161.226 134.044 162.044 133.771 162.929 133.022C163.202 132.818 163.474 132.613 163.679 132.341C163.742 132.256 163.805 132.178 163.867 132.103C164.003 131.935 164.13 131.779 164.224 131.591L162.929 130.024C162.881 130.073 162.833 130.112 162.788 130.15C162.705 130.217 162.633 130.277 162.589 130.365C162.541 130.46 162.461 130.522 162.393 130.574L162.392 130.574L162.391 130.576C162.378 130.586 162.365 130.595 162.354 130.605C162.34 130.616 162.327 130.627 162.316 130.637C161.976 130.91 161.703 131.046 161.499 131.114C161.09 131.182 160.749 131.046 160.409 130.637L154.141 123.144L155.981 121.645L154.686 120.078L152.847 121.577L150.19 118.375ZM144.876 128.526L143.105 130.092L153.187 141.265L155.027 139.562L149.236 133.158C148.487 132.341 148.146 131.455 148.078 130.365C148.078 129.275 148.487 128.321 149.44 127.504C149.52 127.424 149.6 127.367 149.666 127.321C149.684 127.308 149.701 127.296 149.717 127.284L149.733 127.272C149.738 127.268 149.743 127.265 149.748 127.261C149.76 127.251 149.771 127.241 149.781 127.231C149.849 127.163 149.985 127.095 150.122 127.027L148.35 125.051C148.261 125.111 148.184 125.171 148.115 125.225C148.026 125.294 147.95 125.353 147.873 125.392C147.805 125.426 147.771 125.46 147.746 125.485C147.72 125.511 147.703 125.528 147.669 125.528C146.92 126.209 146.579 127.095 146.443 128.117C146.307 129.139 146.375 129.956 146.579 130.433L144.876 128.526ZM141.401 138.813C141.606 139.29 141.47 139.698 141.129 140.175L138.608 143.105C137.791 144.195 137.314 145.353 137.246 146.511C137.178 147.669 137.654 148.759 138.608 149.713C139.562 150.599 140.584 151.007 141.81 151.007C143.036 151.007 144.127 150.462 145.08 149.509C145.898 148.691 146.443 147.737 146.783 146.715C147.124 145.693 147.26 144.74 147.124 143.922C147.601 144.331 148.01 144.535 148.418 144.603C149.1 144.74 149.781 144.535 150.394 143.922C150.599 143.65 150.803 143.445 150.939 143.309C151.039 143.209 151.139 143.036 151.265 142.817L151.268 142.813C151.291 142.772 151.316 142.73 151.341 142.687C151.365 142.646 151.39 142.603 151.416 142.56L150.122 141.265C150.088 141.333 150.036 141.384 149.985 141.436C149.934 141.487 149.883 141.538 149.849 141.606C149.754 141.653 149.692 141.734 149.64 141.802C149.618 141.831 149.597 141.858 149.577 141.878C149.372 142.151 149.168 142.287 148.964 142.219C148.759 142.151 148.623 142.083 148.418 141.878L142.287 135.815C141.265 134.861 140.107 134.521 138.881 134.793C137.586 135.066 136.36 135.883 135.134 137.11C134.044 138.2 133.363 139.426 133.09 140.72C132.818 142.083 133.294 143.377 134.589 144.74L136.224 143.105C135.747 142.491 135.474 141.946 135.406 141.47C135.338 140.584 135.679 139.698 136.633 138.745C137.45 137.927 138.2 137.45 138.881 137.314C139.562 137.178 140.243 137.382 140.856 137.995C141.129 138.336 141.333 138.608 141.401 138.813ZM114.423 152.71L120.35 145.693C121.508 144.331 122.871 143.513 124.37 143.309C125.869 143.105 127.367 143.65 128.798 144.808C130.024 145.83 130.774 147.124 131.046 148.623C131.319 150.122 130.774 151.689 129.479 153.255L125.324 158.161L131.932 163.747L130.161 165.859L114.423 152.71ZM228.331 80.0876L230.715 79.4063L231.26 81.3139C231.533 80.4964 231.942 79.8832 232.418 79.3382C233.1 78.5888 233.985 78.0438 235.075 77.7032C236.71 77.2263 238.277 77.4307 239.776 78.3163C241.275 79.202 242.365 80.837 243.046 83.1533C244 86.2871 243.796 88.7397 242.569 90.5791C241.752 91.7372 240.662 92.4866 239.299 92.8954C238.209 93.236 237.255 93.236 236.37 92.9635C235.893 92.8273 235.212 92.4866 234.53 92.0097L236.71 99.3674L234.326 100.049L228.331 80.0876ZM315.397 63.601L311.445 63.2603L309.606 83.6302L312.263 83.8346L313.353 71.7762C313.353 71.4372 313.387 70.9607 313.432 70.3465L313.432 70.3455C313.45 70.0958 313.469 69.8232 313.489 69.528C313.518 69.1 313.534 68.7078 313.549 68.3615C313.569 67.881 313.586 67.4888 313.625 67.2117L313.693 66.5985L318.054 84.3796L320.779 84.6521L328.136 67.9611C328.097 68.6221 328.036 69.2388 327.978 69.8238L327.978 69.8248C327.935 70.2643 327.893 70.6859 327.864 71.0949C327.796 72.0487 327.728 72.7299 327.659 73.1387L326.569 85.1971L329.226 85.4015L331.066 64.9635L327.114 64.6229L319.757 81.382L315.397 63.601ZM335.971 81.5183L337.742 71.7762L335.153 71.2993L333.314 81.3139C333.109 82.6083 333.109 83.6302 333.382 84.4477C333.859 86.0146 335.153 86.9684 337.197 87.309C338.56 87.5815 339.718 87.3771 340.808 86.764C341.353 86.4234 341.83 86.0146 342.238 85.5377L341.83 87.7178L344.146 88.1265L346.803 73.4112L344.35 72.9343L343.056 80.1557C342.783 81.6545 342.443 82.7445 341.966 83.4939C341.08 84.9246 339.854 85.4696 338.151 85.1971C336.993 84.9927 336.243 84.3796 335.971 83.4258C335.835 82.8808 335.835 82.2677 335.971 81.5183ZM355.387 71.163L352.934 70.5499L351.981 74.7056L350.005 74.2287L349.528 76.2044L351.504 76.6813L349.187 86.2871C348.983 87.2409 348.983 88.0584 349.255 88.7397C349.528 89.4209 350.209 89.8978 351.367 90.1703C351.64 90.2612 351.852 90.2914 352.064 90.3217C352.17 90.3369 352.276 90.352 352.389 90.3747H353.275L353.752 88.399C353.639 88.399 353.547 88.3784 353.465 88.3598C353.397 88.3447 353.336 88.3309 353.275 88.3309C353.207 88.3309 353.139 88.3139 353.071 88.2969C353.002 88.2798 352.934 88.2628 352.866 88.2628C352.457 88.1265 352.117 87.9903 351.981 87.854C351.708 87.5815 351.572 87.1728 351.708 86.6959L353.956 77.2263L356.272 77.7713L356.749 75.7956L354.433 75.2506L355.387 71.163ZM359.338 86.6959L362.131 77.1582L359.747 76.4088L356.886 86.1509C356.545 87.3771 356.409 88.4672 356.613 89.2847C356.886 90.8516 358.112 91.9416 360.088 92.5548C361.382 92.9635 362.54 92.8954 363.698 92.4185C364.311 92.2141 364.788 91.8735 365.265 91.3966L364.584 93.5085L366.832 94.1898L371.056 79.8151L368.672 79.1338L366.56 86.1509C366.151 87.5134 365.674 88.6034 365.129 89.2847C364.107 90.6472 362.745 91.056 361.109 90.5791C359.951 90.2385 359.27 89.5572 359.134 88.6034C359.066 88.0584 359.134 87.4453 359.338 86.6959ZM382.433 89.4209C382.092 89.7616 381.616 89.8297 381.071 89.6934L377.187 88.7397C375.825 88.399 374.599 88.4672 373.509 88.8759C372.418 89.2847 371.601 90.1703 371.124 91.4647C370.715 92.6229 370.715 93.781 371.26 94.8711C371.805 95.9611 372.691 96.7786 373.985 97.2555C375.007 97.6642 376.097 97.8005 377.187 97.6642C378.209 97.528 379.095 97.2555 379.844 96.7786C379.708 97.3236 379.708 97.8005 379.776 98.2093C379.912 98.8905 380.389 99.4355 381.207 99.708C381.444 99.803 381.649 99.8649 381.82 99.9168L381.821 99.9171L381.823 99.9177C381.896 99.9398 381.963 99.9602 382.024 99.9806C382.229 100.049 382.501 100.117 382.91 100.117L383.591 98.3455C383.455 98.3455 383.319 98.3455 383.182 98.2774C383.157 98.2646 383.134 98.2541 383.112 98.2452C383.076 98.2304 383.043 98.2197 383.011 98.209L382.988 98.2012C382.971 98.1954 382.954 98.1894 382.936 98.1824C382.907 98.1716 382.877 98.1586 382.842 98.1411C382.501 98.0049 382.365 97.8005 382.297 97.6642C382.238 97.5456 382.281 97.3753 382.339 97.1533C382.347 97.1204 382.356 97.0863 382.365 97.0511L385.431 89.0122C385.976 87.7178 385.771 86.5596 385.022 85.5377C384.204 84.5158 382.978 83.6983 381.343 83.0852C379.912 82.5402 378.55 82.4039 377.187 82.6764C375.825 82.9489 374.803 83.9708 374.122 85.674L376.302 86.4915C376.642 85.8102 377.051 85.3333 377.46 85.0608C378.209 84.584 379.231 84.584 380.457 85.0608C381.547 85.4696 382.297 86.0146 382.706 86.5596C383.114 87.1046 383.183 87.7859 382.91 88.6034C382.774 88.9441 382.637 89.2166 382.433 89.4209ZM395.513 83.2895L393.197 82.2677L385.022 101.071L387.338 102.092L395.513 83.2895ZM401.985 104.886C401.917 104 402.19 103.046 402.667 102.024L400.418 100.866C399.328 102.774 399.056 104.613 399.669 106.453C400.282 108.292 401.645 109.791 403.825 111.017C405.732 112.039 407.572 112.584 409.479 112.448C411.387 112.311 412.886 111.29 413.976 109.314C414.861 107.747 414.929 106.18 414.316 104.749C413.908 103.932 413.226 103.046 412.204 102.092L410.092 100.185C408.662 98.8905 407.776 98.0049 407.436 97.4599C406.959 96.6423 406.959 95.8248 407.436 94.9392C407.844 94.1217 408.526 93.5767 409.479 93.3041C410.433 93.0316 411.591 93.3041 412.954 94.0535C414.657 95.0073 415.611 96.0973 415.815 97.4599C415.883 98.2093 415.747 99.0949 415.338 100.117L417.655 101.411C418.745 99.3674 418.881 97.5961 418.131 95.9611C417.314 94.326 416.019 93.0316 414.18 92.0097C412.204 90.8516 410.365 90.5791 408.73 90.9878C407.095 91.3966 405.801 92.4185 404.915 94.0535C404.097 95.5523 404.029 96.983 404.71 98.3455C405.051 99.163 405.937 100.117 407.299 101.343L409.343 103.182C410.501 104.136 411.182 105.022 411.591 105.771C411.932 106.521 411.864 107.406 411.319 108.36C410.569 109.654 409.411 110.2 407.708 109.927C406.891 109.791 406.005 109.45 405.119 108.973C403.144 107.883 402.122 106.521 401.985 104.886ZM418.745 113.197L424.195 104.886L422.083 103.455L416.496 111.971C415.815 112.993 415.406 113.946 415.338 114.832C415.202 116.467 415.951 117.83 417.723 118.988C418.813 119.737 419.971 120.01 421.197 119.873C421.81 119.805 422.355 119.601 422.968 119.328L421.742 121.168L423.718 122.462L431.961 109.995L429.849 108.633L425.83 114.764C425.012 115.99 424.263 116.808 423.513 117.353C422.083 118.375 420.72 118.375 419.289 117.421C418.268 116.808 417.859 115.922 417.995 114.968C418.063 114.423 418.336 113.81 418.745 113.197ZM437.684 114.219L435.708 112.72L422.968 129.275L424.944 130.774L429.577 124.71C429.645 125.596 429.713 126.277 429.917 126.754C430.258 127.64 430.871 128.389 431.757 129.071C432.915 129.888 434.141 130.365 435.572 130.297C437.752 130.229 439.864 128.934 441.839 126.346C443.27 124.438 443.951 122.53 443.815 120.827C443.679 119.124 442.929 117.693 441.567 116.672C440.681 115.99 439.728 115.582 438.706 115.513C438.024 115.445 437.275 115.582 436.457 115.786L437.684 114.219ZM450.628 124.574L448.788 122.939L434.959 138.608L436.866 140.311L441.976 134.589C441.908 135.406 441.976 136.156 442.112 136.633C442.384 137.518 442.929 138.336 443.747 139.085C444.769 140.039 445.995 140.516 447.426 140.584C449.606 140.652 451.786 139.494 453.966 137.041C455.601 135.27 456.35 133.499 456.35 131.728C456.35 129.956 455.737 128.526 454.443 127.367C453.557 126.618 452.672 126.141 451.65 126.005C450.9 125.869 450.151 125.869 449.333 126.073L450.628 124.574ZM465.139 148.419C466.91 146.647 467.796 144.876 467.796 143.037C467.796 141.129 467.114 139.562 465.82 138.2C464.321 136.633 462.618 135.951 460.642 136.088C458.667 136.224 456.759 137.178 454.988 138.949C453.353 140.584 452.399 142.287 452.263 144.127C452.127 145.966 452.74 147.669 454.17 149.1C455.873 150.871 457.645 151.62 459.62 151.348C461.596 151.075 463.436 150.122 465.139 148.419ZM474.268 148.01L472.701 146.238L461.392 156.049L463.027 157.956L469.499 152.302C470.316 151.62 471.202 151.212 472.292 151.212C473.382 151.212 474.336 151.689 475.153 152.642C475.233 152.722 475.29 152.802 475.336 152.868C475.369 152.915 475.398 152.955 475.426 152.983C475.494 153.051 475.562 153.187 475.63 153.324L477.606 151.552C477.47 151.348 477.333 151.144 477.265 151.075C477.262 151.068 477.258 151.062 477.255 151.055C477.249 151.045 477.244 151.037 477.239 151.028C477.235 151.023 477.231 151.017 477.227 151.012L477.222 151.005L477.216 150.997C477.211 150.99 477.206 150.984 477.201 150.978C477.196 150.973 477.192 150.969 477.188 150.965C477.184 150.96 477.179 150.955 477.175 150.951L477.174 150.951L477.172 150.948L477.172 150.948C477.146 150.922 477.129 150.905 477.129 150.871C476.516 150.122 475.63 149.645 474.608 149.577C473.586 149.509 472.769 149.509 472.292 149.713L474.268 148.01ZM484.282 153.46L482.715 151.484L479.377 154.005L478.083 152.438L476.448 153.732L477.742 155.299L470.044 161.499C469.294 162.112 468.818 162.725 468.613 163.474C468.409 164.224 468.681 165.041 469.431 165.927C469.533 166.063 469.652 166.182 469.771 166.302C469.891 166.421 470.01 166.54 470.112 166.676C470.293 166.918 470.474 167.052 470.703 167.222C470.732 167.244 470.762 167.266 470.793 167.29L472.36 166.063C472.312 166.015 472.272 165.967 472.235 165.921C472.167 165.839 472.107 165.767 472.019 165.723C471.924 165.675 471.863 165.594 471.811 165.527C471.801 165.515 471.792 165.503 471.783 165.492C471.771 165.476 471.759 165.462 471.747 165.45C471.474 165.041 471.338 164.769 471.27 164.564C471.202 164.156 471.338 163.815 471.747 163.474L479.377 157.343L480.876 159.182L482.511 157.888L481.012 156.049L484.282 153.46Z" fill="#FAFAFA"/>
<path d="M520.934 349.528C521.684 349.324 522.569 349.324 523.659 349.46L521.684 357.431C520.457 357.09 519.504 356.477 518.891 355.523C518.277 354.569 518.073 353.548 518.345 352.457C518.754 350.891 519.572 349.937 520.934 349.528Z" fill="#FAFAFA"/>
<path d="M508.808 387.543C509.557 387.475 510.443 387.611 511.465 387.951L508.127 395.445C506.968 394.9 506.219 394.083 505.742 393.061C505.265 392.039 505.265 390.949 505.742 389.927C506.423 388.496 507.445 387.679 508.808 387.543Z" fill="#FAFAFA"/>
<path d="M498.657 415.883C500.019 416.701 501.041 417.723 501.791 418.881C502.54 420.039 502.472 421.333 501.586 422.696C500.837 423.99 499.815 424.603 498.521 424.672C497.226 424.74 495.932 424.331 494.569 423.513C493.207 422.696 492.185 421.674 491.504 420.448C490.822 419.221 490.891 417.995 491.708 416.701C492.662 415.202 493.82 414.521 495.387 414.657C496.409 414.725 497.431 415.134 498.657 415.883Z" fill="#FAFAFA"/>
<path d="M464.253 460.915C465.343 462.005 466.092 463.231 466.569 464.526C466.978 465.888 466.637 467.114 465.479 468.341C464.389 469.363 463.231 469.771 462.005 469.499C460.779 469.226 459.552 468.545 458.462 467.387C457.304 466.229 456.555 464.934 456.214 463.64C455.942 462.277 456.282 461.119 457.372 460.029C458.599 458.803 459.893 458.462 461.392 458.939C462.345 459.28 463.299 459.893 464.253 460.915Z" fill="#FAFAFA"/>
<path d="M426.783 491.844C427.601 493.139 428.146 494.501 428.282 495.864C428.419 497.294 427.805 498.453 426.443 499.338C425.217 500.156 423.99 500.292 422.832 499.747C421.674 499.202 420.72 498.316 419.835 496.954C418.949 495.523 418.472 494.161 418.404 492.798C418.336 491.436 418.949 490.346 420.243 489.528C421.674 488.574 423.036 488.506 424.399 489.324C425.217 489.801 426.034 490.686 426.783 491.844Z" fill="#FAFAFA"/>
<path d="M412 507.718C410.706 508.467 409.479 508.467 408.389 507.854C407.231 507.241 406.345 506.219 405.596 504.788C404.71 503.153 404.37 501.723 404.574 500.496C404.779 499.27 405.46 498.384 406.55 497.771C407.504 497.226 408.594 497.226 409.684 497.635C410.774 498.044 411.796 499.134 412.681 500.769C413.567 502.404 413.976 503.835 413.771 505.061C413.635 506.287 413.022 507.173 412 507.718Z" fill="#FAFAFA"/>
<path d="M396.399 504.857C397.012 505.333 397.557 506.015 398.102 506.968L390.608 510.307C390.131 509.08 390.063 507.99 390.404 506.9C390.745 505.81 391.494 505.061 392.516 504.584C394.015 503.971 395.309 504.039 396.399 504.857Z" fill="#FAFAFA"/>
<path d="M381.684 511.192C382.229 511.669 382.774 512.419 383.251 513.372L375.552 516.234C375.144 515.007 375.212 513.849 375.62 512.827C376.029 511.737 376.779 511.056 377.869 510.647C379.367 510.102 380.594 510.307 381.684 511.192Z" fill="#FAFAFA"/>
<path fill-rule="evenodd" clip-rule="evenodd" d="M580 300C580 454.64 454.64 580 300 580C286.775 580 273.764 579.083 261.028 577.31L275.811 472.121C283.716 473.222 291.791 473.791 300 473.791C395.982 473.791 473.791 395.982 473.791 300C473.791 283.376 471.457 267.297 467.098 252.073L569.217 222.783C576.239 247.311 580 273.216 580 300ZM517.255 323.436L516.983 325.956L521.002 326.365L520.798 328.409L522.842 328.613L523.046 326.569L532.925 327.659C533.878 327.796 534.696 327.659 535.309 327.319C535.922 326.978 536.331 326.229 536.467 325.071C536.535 324.73 536.535 324.389 536.535 324.049C536.535 323.776 536.535 323.436 536.467 323.163L534.492 322.959V323.844C534.423 324.321 534.355 324.594 534.219 324.798C534.015 325.139 533.674 325.275 533.129 325.207L523.455 324.117L523.727 321.732L521.684 321.528L521.411 323.912L517.255 323.436ZM519.095 340.195L518.686 342.579L533.401 344.895L533.81 342.443L526.044 341.148C525.09 341.012 524.341 340.808 523.864 340.603C523.387 340.399 522.91 340.058 522.501 339.582C522.024 338.968 521.684 338.287 521.616 337.606C521.555 337.241 521.602 336.822 521.662 336.301C521.669 336.238 521.676 336.173 521.684 336.107C521.888 334.949 522.433 334.2 523.455 333.927C524.068 333.723 524.818 333.723 525.703 333.859L535.036 335.426L535.445 332.905L525.976 331.338C524.477 331.134 523.319 331.134 522.433 331.406C520.866 331.883 519.912 333.178 519.572 335.29C519.436 336.243 519.436 337.197 519.708 338.015C519.981 338.832 520.457 339.718 521.207 340.535L519.095 340.195ZM520.117 347.212C519.231 347.552 518.414 348.165 517.732 348.983C516.983 349.801 516.506 350.754 516.165 351.776C515.689 353.82 516.029 355.591 517.187 357.226C518.345 358.861 520.117 359.951 522.433 360.496C524.818 361.041 526.793 360.837 528.428 359.951C530.063 359.066 531.085 357.635 531.494 355.864C531.698 355.114 531.766 354.433 531.766 353.82C531.766 352.662 531.494 351.64 530.949 350.754C530.676 350.209 530.2 349.732 529.654 349.187C529.109 348.642 528.564 348.302 528.02 348.097L527.474 350.482C528.088 350.822 528.564 351.231 528.973 351.776C529.654 352.73 529.791 353.82 529.518 355.114C529.178 356.477 528.496 357.363 527.474 357.771C526.453 358.248 525.158 358.316 523.659 357.976L526.18 347.416C524.681 347.075 523.591 346.871 522.91 346.871C521.888 346.803 520.934 346.871 520.117 347.212ZM508.808 377.937L507.99 380.321L522.161 385.09L522.978 382.706L515.484 380.185C513.645 379.572 512.487 378.754 512.078 377.801C511.669 376.847 511.601 375.893 511.874 375.007C512.214 373.985 512.759 373.44 513.577 373.304C514.122 373.168 514.871 373.304 515.825 373.645L525.09 376.779L525.908 374.326L517.664 371.533C516.234 371.056 515.28 370.375 514.871 369.489C514.462 368.603 514.394 367.718 514.735 366.764C514.939 366.083 515.28 365.538 515.825 365.197C516.302 364.857 517.051 364.788 518.005 365.129L527.883 368.467L528.701 366.015L519.231 362.813C517.937 362.336 516.915 362.2 516.029 362.336C514.394 362.54 513.236 363.63 512.623 365.538C512.282 366.423 512.214 367.309 512.35 368.127C512.487 369.012 512.827 369.762 513.44 370.579C512.691 370.715 512.146 370.92 511.669 371.192C510.852 371.669 510.307 372.487 509.898 373.645C509.557 374.599 509.557 375.62 509.83 376.574C510.034 377.119 510.375 377.801 510.852 378.618L508.808 377.937ZM508.399 385.158C507.513 385.294 506.628 385.771 505.742 386.453C504.925 387.134 504.243 387.951 503.971 388.837C503.085 390.813 503.153 392.584 503.971 394.423C504.788 396.263 506.355 397.625 508.535 398.579C510.783 399.601 512.759 399.737 514.53 399.124C516.302 398.511 517.528 397.353 518.277 395.65C518.55 394.968 518.754 394.287 518.891 393.674C519.095 392.516 519.027 391.494 518.618 390.472C518.414 389.927 518.073 389.314 517.596 388.701C517.119 388.088 516.642 387.611 516.165 387.338L515.144 389.586C515.689 390.063 516.097 390.54 516.37 391.153C516.847 392.243 516.847 393.333 516.302 394.56C515.757 395.786 514.871 396.535 513.781 396.808C512.623 397.08 511.397 396.876 509.966 396.331L514.326 386.384C514.148 386.317 513.977 386.251 513.812 386.188L513.81 386.187C512.646 385.742 511.789 385.414 511.192 385.294C510.238 385.022 509.285 385.022 508.399 385.158ZM508.467 408.321L495.796 406.209L494.569 408.798L510.375 410.842L511.601 408.457L500.905 396.535L499.611 398.988L508.467 408.321ZM499.951 413.567C497.839 412.273 495.864 411.864 494.092 412.341C492.321 412.818 490.891 413.84 489.937 415.475C488.847 417.314 488.574 419.085 489.187 420.993C489.8 422.9 491.163 424.467 493.343 425.762C495.319 426.988 497.226 427.397 499.066 427.124C500.837 426.852 502.268 425.83 503.358 424.058C504.652 421.947 504.925 420.039 504.175 418.2C503.426 416.36 501.995 414.793 499.951 413.567ZM471.474 433.324L469.09 436.526L485.645 448.72L487.212 446.608L477.47 439.455L477.468 439.454C477.06 439.182 476.447 438.773 475.63 438.161C475.159 437.835 474.766 437.547 474.438 437.308L474.43 437.303C474.146 437.095 473.912 436.925 473.723 436.798L473.246 436.457L490.686 441.976L492.321 439.728L481.83 424.74C482.783 425.353 483.601 425.966 484.35 426.579C485.1 427.124 485.645 427.533 485.985 427.805L495.728 434.959L497.294 432.847L480.74 420.652L478.423 423.854L488.915 438.842L471.474 433.324ZM461.801 444.36C460.642 445.655 460.234 446.745 460.438 447.766C460.574 448.311 460.983 448.993 461.869 449.742L463.572 451.309L462.141 452.876L463.64 454.238L465.071 452.672L474.608 461.392L476.311 459.552L466.774 450.832L468.477 448.993L466.978 447.63L465.275 449.47C464.049 448.38 463.367 447.698 463.163 447.29C462.959 446.881 463.095 446.404 463.64 445.859C463.708 445.723 463.776 445.655 463.844 445.586L464.253 445.178L462.55 443.611L461.801 444.36ZM466.092 459.007C464.321 457.236 462.55 456.35 460.71 456.35C458.871 456.35 457.236 457.032 455.873 458.394C454.375 459.893 453.693 461.596 453.83 463.572C453.966 465.479 454.92 467.387 456.691 469.158C458.394 470.861 460.097 471.747 461.937 471.883C463.776 472.088 465.411 471.406 466.842 469.976C468.545 468.204 469.294 466.365 469.022 464.457C468.749 462.55 467.796 460.711 466.092 459.007ZM429.509 481.285L427.533 482.784L436.662 494.638L438.637 493.139L433.8 486.871C432.642 485.372 432.165 484.078 432.302 482.988C432.438 481.898 432.915 481.08 433.664 480.535C434.482 479.922 435.231 479.718 435.981 480.058C436.457 480.331 437.002 480.808 437.616 481.625L443.543 489.392L445.586 487.825L440.272 480.944C439.319 479.718 438.978 478.628 439.114 477.674C439.319 476.72 439.796 475.971 440.545 475.358C441.09 474.881 441.703 474.676 442.316 474.676C442.929 474.676 443.543 475.017 444.156 475.835L450.491 484.078L452.535 482.511L446.472 474.608C445.655 473.586 444.905 472.905 444.088 472.496C442.657 471.747 441.09 472.02 439.523 473.246C438.774 473.791 438.229 474.472 437.888 475.221C437.547 475.971 437.343 476.857 437.411 477.81C436.798 477.538 436.185 477.333 435.64 477.333C434.754 477.265 433.801 477.606 432.847 478.355C432.029 478.968 431.484 479.786 431.144 480.74C430.939 481.285 430.803 482.034 430.803 482.988L429.509 481.285ZM428.964 490.414C427.669 488.302 426.102 487.007 424.263 486.667C422.423 486.258 420.72 486.599 419.017 487.757C417.178 488.915 416.156 490.482 415.883 492.389C415.611 494.297 416.156 496.341 417.518 498.453C418.813 500.428 420.311 501.655 422.083 502.2C423.854 502.676 425.625 502.404 427.328 501.314C429.44 500.02 430.53 498.384 430.667 496.409C430.803 494.433 430.258 492.457 428.964 490.414ZM410.024 495.864C409.207 495.523 408.526 495.319 407.981 495.319C407.095 495.251 406.141 495.523 405.119 496C403.28 496.954 402.258 498.384 402.054 500.36C401.849 502.336 402.258 504.243 403.28 506.151C404.438 508.195 405.869 509.489 407.572 510.17C409.275 510.852 410.91 510.784 412.341 509.966C413.226 509.489 413.976 508.876 414.453 508.127C414.998 507.377 415.27 506.492 415.338 505.402L416.36 507.241L418.336 506.151L408.526 488.029L406.414 489.187L410.024 495.864ZM397.693 502.813C396.876 502.336 395.922 502.063 394.832 501.995C393.742 501.927 392.72 502.131 391.698 502.608C389.791 503.494 388.564 504.857 388.02 506.764C387.406 508.672 387.611 510.715 388.633 512.895C389.655 515.076 391.017 516.574 392.72 517.256C394.423 518.005 396.127 517.937 397.83 517.187C398.511 516.915 399.124 516.574 399.601 516.165C400.555 515.484 401.168 514.667 401.577 513.645C401.781 513.032 401.917 512.35 401.985 511.601C402.054 510.852 401.985 510.238 401.849 509.693L399.601 510.715C399.669 511.397 399.669 512.078 399.465 512.691C399.124 513.781 398.307 514.599 397.148 515.144C395.854 515.689 394.696 515.689 393.742 515.144C392.788 514.53 391.971 513.577 391.29 512.214L401.236 507.718C400.623 506.355 400.078 505.333 399.669 504.788C399.124 503.971 398.443 503.29 397.693 502.813ZM383.114 509.217C382.365 508.672 381.411 508.331 380.321 508.195C379.231 508.058 378.209 508.195 377.119 508.399C375.144 509.148 373.781 510.443 373.1 512.282C372.418 514.122 372.487 516.165 373.304 518.414C374.19 520.73 375.416 522.297 377.119 523.114C378.754 523.932 380.526 524 382.229 523.387C382.978 523.183 383.523 522.842 384.068 522.501C385.022 521.888 385.703 521.071 386.18 520.117C386.521 519.572 386.657 518.891 386.793 518.141C386.929 517.324 386.929 516.711 386.793 516.165L384.477 517.051C384.545 517.732 384.409 518.414 384.204 519.027C383.796 520.117 382.978 520.866 381.752 521.343C380.389 521.82 379.299 521.752 378.346 521.139C377.392 520.526 376.642 519.504 376.097 518.073L386.316 514.326C385.771 512.964 385.363 511.942 384.954 511.329C384.477 510.443 383.864 509.762 383.114 509.217ZM358.861 509.148L345.032 512.487L349.8 532.448L352.526 531.766L350.346 522.706L360.156 520.321L359.611 517.937L349.8 520.321L348.37 514.258L359.474 511.601L358.861 509.148ZM362.608 513.713L364.925 513.032L365.674 515.484C365.742 514.939 366.015 514.19 366.491 513.304C367.036 512.419 367.718 511.805 368.672 511.465C368.695 511.465 368.719 511.465 368.742 511.462C368.75 511.461 368.757 511.46 368.765 511.458C368.777 511.456 368.789 511.452 368.801 511.447C368.826 511.437 368.851 511.422 368.876 511.397C368.915 511.397 368.954 511.391 368.996 511.382C369.013 511.378 369.031 511.373 369.05 511.368C369.065 511.364 369.081 511.359 369.098 511.354C369.117 511.348 369.137 511.342 369.159 511.335L369.161 511.335C369.179 511.329 369.199 511.323 369.22 511.317L369.248 511.308C369.299 511.293 369.356 511.277 369.421 511.26L370.17 513.781C370.134 513.781 370.097 513.786 370.061 513.793C370.029 513.799 369.998 513.807 369.966 513.815C369.898 513.832 369.83 513.849 369.762 513.849C369.625 513.849 369.489 513.917 369.353 513.985C368.127 514.326 367.309 515.007 366.9 516.029C366.492 516.983 366.423 518.005 366.764 519.027L369.285 527.27L366.9 528.02L362.608 513.713Z" fill="#FAFAFA"/>
<path d="M78.8613 378.277C80.2239 378.482 81.6545 378.277 83.1533 377.8C84.4477 377.324 85.4696 376.779 86.1509 376.097C87.2409 375.007 87.5134 373.645 86.9684 372.01C86.4915 370.579 85.6059 369.693 84.2433 369.421C82.8808 369.148 81.4501 369.285 79.8832 369.83C78.3844 370.307 77.2263 371.124 76.4769 372.078C75.7275 373.1 75.5231 374.258 76 375.689C76.545 377.187 77.4988 378.073 78.8613 378.277Z" fill="#FAFAFA"/>
<path d="M104.068 427.192C106.112 427.192 108.156 426.579 110.063 425.421C112.107 424.126 113.47 422.628 114.015 420.72C114.628 418.881 114.355 417.041 113.197 415.134C112.107 413.294 110.54 412.204 108.633 411.864C106.657 411.455 104.477 412.068 102.092 413.567C100.185 414.793 98.8224 416.224 98.073 418.063C97.3236 419.835 97.6642 421.878 99.0268 424.058C100.321 426.102 101.956 427.192 104.068 427.192Z" fill="#FAFAFA"/>
<path d="M127.163 450.832C127.912 450.083 128.457 449.333 128.73 448.584C129.207 447.29 128.934 445.995 127.912 444.769C127.163 443.883 126.209 443.406 125.119 443.338C123.961 443.27 122.939 443.679 121.917 444.428L127.163 450.832Z" fill="#FAFAFA"/>
<path d="M166.54 486.667C167.085 485.713 167.426 484.895 167.562 484.146C167.766 482.783 167.153 481.625 165.927 480.672C165.041 479.99 164.019 479.718 162.861 479.99C161.771 480.195 160.749 480.808 160 481.83L166.54 486.667Z" fill="#FAFAFA"/>
<path fill-rule="evenodd" clip-rule="evenodd" d="M30.7826 222.783C23.7606 247.311 20 273.216 20 300C20 438.045 119.899 552.758 251.347 575.788L269.802 471.176C188.215 456.882 126.209 385.682 126.209 300C126.209 283.376 128.543 267.297 132.902 252.073L30.7826 222.783ZM83.4939 321.324L66.8711 329.363L84.9246 333.041L85.3333 336.107L64.0779 331.202L63.7372 328.272L83.2214 318.326L83.4939 321.324ZM80.7007 340.876L80.2239 338.355L65.5085 340.944L65.9854 343.465L80.7007 340.876ZM85.7421 337.333L86.219 339.854L83.4258 340.331L82.9489 337.81L85.7421 337.333ZM82.7445 354.297C82.1995 355.523 80.9732 356.409 79.0657 357.09L78.5207 354.706C79.4063 354.365 80.0876 353.888 80.5645 353.207C81.0414 352.526 81.1776 351.64 80.9051 350.482C80.5645 348.915 79.5426 347.961 77.8394 347.62C76.7494 347.416 75.455 347.484 74.0243 347.825C72.5937 348.165 71.4355 348.71 70.5499 349.596C69.6642 350.482 69.3917 351.504 69.7324 352.866C69.9367 353.888 70.4818 354.637 71.2312 355.046C71.9805 355.523 72.9343 355.727 74.0243 355.727L74.5694 358.112C72.5937 358.248 71.0268 357.908 69.8686 357.022C68.7105 356.136 67.9611 354.842 67.5523 353.139C67.1436 351.231 67.4842 349.528 68.5742 348.097C69.7324 346.667 71.2993 345.713 73.4112 345.236C76 344.623 78.1119 344.827 79.8151 345.713C81.5183 346.667 82.6083 348.029 83.017 350.005C83.4258 351.64 83.3577 353.071 82.7445 354.297ZM89.4891 360.088L85.4696 361.246L86.0827 363.562L84.1071 364.107L83.4939 361.791L74.0925 364.448C73.6156 364.584 73.2749 364.856 73.2068 365.265C73.1387 365.47 73.2068 365.81 73.3431 366.219C73.3431 366.355 73.4112 366.491 73.4793 366.56C73.5475 366.628 73.6156 366.832 73.6837 367.036L71.7762 367.582L71.3674 366.764C71.29 366.609 71.2346 366.433 71.1763 366.246C71.1318 366.105 71.0857 365.957 71.0268 365.81C70.6861 364.652 70.7543 363.835 71.2312 363.29C71.708 362.744 72.3893 362.336 73.3431 362.063L82.8808 359.406L82.3358 357.431L84.3114 356.886L84.8565 358.861L88.8078 357.635L89.4891 360.088ZM88.8078 376.574C87.9903 378.209 86.4234 379.504 84.1071 380.253C81.7908 381.002 79.747 381.139 77.9076 380.526C76.0681 379.912 74.7056 378.482 73.9562 376.165C73.2749 374.258 73.4112 372.487 74.365 370.852C75.3187 369.285 76.8857 368.126 79.0657 367.377C81.4501 366.56 83.5621 366.56 85.3333 367.241C87.1728 367.99 88.399 369.353 89.0803 371.328C89.6934 373.168 89.6253 374.871 88.8078 376.574ZM92.0097 380.73L92.8954 382.978L90.511 383.932C91.056 383.932 91.8054 384.136 92.7591 384.613C93.7129 385.022 94.3942 385.703 94.7348 386.657C94.7348 386.691 94.7518 386.725 94.7689 386.759C94.7805 386.783 94.7922 386.806 94.7984 386.829C94.7995 386.833 94.8005 386.838 94.8012 386.842C94.8023 386.848 94.8029 386.855 94.8029 386.861C94.8029 386.903 94.829 386.998 94.8649 387.128C94.8871 387.208 94.9132 387.302 94.9392 387.406L92.4866 388.428C92.4866 388.36 92.4696 388.292 92.4526 388.224C92.4355 388.156 92.4185 388.088 92.4185 388.02C92.3844 387.951 92.3674 387.883 92.3504 387.815C92.3386 387.768 92.3268 387.721 92.3093 387.674C92.3016 387.653 92.2927 387.632 92.2822 387.611C91.8054 386.453 91.056 385.703 90.0341 385.363C89.0122 385.022 88.0584 385.09 87.0365 385.499L79.0657 388.701L78.1119 386.384L92.0097 380.73ZM99.5037 397.83L100.662 400.35C99.6399 400.418 97.3236 400.623 93.7129 400.964C90.9878 401.236 88.7397 401.44 87.0365 401.577C82.9489 401.849 80.4282 401.917 79.4063 401.713C78.3844 401.508 77.5669 400.759 76.9538 399.465C76.8857 399.295 76.8177 399.158 76.7581 399.039C76.6985 398.92 76.6472 398.817 76.6132 398.715C76.545 398.511 76.4769 398.307 76.4769 398.034L78.5207 397.08C78.5888 397.557 78.6569 397.83 78.7251 398.034C78.7932 398.238 78.8613 398.375 78.9294 398.511C79.1338 398.92 79.3382 399.192 79.5426 399.328C79.747 399.465 80.0195 399.533 80.292 399.601H81.5183C81.9659 399.601 82.3406 399.577 82.6423 399.557C82.8458 399.544 83.0161 399.533 83.1533 399.533L94.8029 388.02L96.0292 390.608L86.6959 399.328L99.5037 397.83ZM116.467 422.423C115.65 424.535 114.015 426.307 111.63 427.805C109.041 429.44 106.453 430.122 103.932 429.849C100.934 429.577 98.5499 427.942 96.7786 425.08C95.1436 422.423 94.7348 419.698 95.5523 417.109C96.438 414.657 98.1411 412.681 100.798 411.046C103.182 409.616 105.567 408.934 107.951 409.071C111.017 409.275 113.47 410.842 115.309 413.771C117.148 416.769 117.557 419.698 116.467 422.423ZM117.762 428.691L110.336 439.114L122.599 435.231L124.234 437.479L108.837 441.771L107.27 439.591L116.058 426.307L117.762 428.691ZM131.114 446.404C131.387 447.494 131.387 448.448 131.114 449.401C130.842 450.287 130.433 451.105 129.752 451.854C129.343 452.399 128.526 453.148 127.367 454.17L120.35 445.859C119.192 446.881 118.511 447.903 118.238 449.061C117.966 450.151 118.307 451.241 119.192 452.331C120.01 453.353 121.032 453.83 122.19 453.898C122.871 453.898 123.484 453.762 124.097 453.489L125.664 455.397C125.187 455.669 124.574 455.942 123.825 456.078C123.075 456.214 122.394 456.282 121.781 456.214C120.691 456.146 119.737 455.737 118.783 455.056C118.307 454.715 117.762 454.238 117.285 453.625C116.058 452.195 115.582 450.56 115.786 448.72C115.99 446.881 117.012 445.178 118.92 443.543C120.759 441.976 122.667 441.226 124.642 441.226C126.618 441.226 128.321 442.044 129.616 443.679C130.365 444.36 130.842 445.314 131.114 446.404ZM135.815 451.037L137.45 452.808L135.543 454.579C136.019 454.375 136.837 454.307 137.859 454.375C138.881 454.443 139.766 454.852 140.448 455.533C140.448 455.567 140.465 455.584 140.49 455.609C140.502 455.621 140.515 455.635 140.53 455.652L140.536 455.66L140.54 455.665L140.545 455.672C140.547 455.675 140.55 455.679 140.552 455.682C140.563 455.698 140.573 455.716 140.584 455.737C140.652 455.805 140.788 456.01 140.925 456.214L139.017 458.053C138.949 457.917 138.881 457.781 138.745 457.713C138.676 457.645 138.54 457.509 138.472 457.372C137.586 456.418 136.633 456.01 135.611 456.078C134.521 456.146 133.635 456.555 132.886 457.236L126.618 463.163L124.915 461.324L135.815 451.037ZM143.922 470.998C143.173 471.951 142.764 472.837 142.628 473.654C142.423 475.29 143.173 476.788 144.808 478.287C145.557 478.968 146.375 479.445 147.192 479.786C148.759 480.399 150.054 480.126 151.007 479.036C151.757 478.219 152.029 477.401 151.825 476.584C151.62 475.766 151.075 474.745 150.19 473.518L148.555 471.27C147.465 469.839 146.852 468.681 146.647 467.796C146.238 466.297 146.647 464.934 147.737 463.64C148.964 462.277 150.394 461.528 152.097 461.46C153.8 461.392 155.504 462.073 157.275 463.572C158.842 464.934 159.864 466.501 160.273 468.272C160.681 470.044 160.136 471.747 158.637 473.45L156.662 471.747C157.275 470.861 157.616 469.976 157.684 469.294C157.752 467.932 157.071 466.637 155.64 465.343C154.482 464.321 153.392 463.844 152.438 463.912C151.484 463.98 150.667 464.389 150.054 465.071C149.372 465.82 149.236 466.637 149.509 467.523C149.713 468.068 150.394 469.158 151.484 470.725L153.187 473.041C154.005 474.131 154.482 475.153 154.686 476.039C155.027 477.606 154.55 479.036 153.392 480.467C151.893 482.17 150.258 482.852 148.35 482.579C146.511 482.238 144.74 481.421 143.173 479.99C141.265 478.355 140.243 476.584 140.039 474.676C139.835 472.769 140.448 470.998 141.946 469.362L143.922 470.998ZM169.333 481.353C169.81 482.375 170.083 483.328 170.015 484.282C169.946 485.168 169.742 486.122 169.265 487.007C168.993 487.62 168.38 488.574 167.494 489.8L158.774 483.328C157.888 484.555 157.479 485.781 157.479 486.939C157.479 488.097 158.024 489.051 159.114 489.869C160.136 490.618 161.226 490.891 162.384 490.686C163.066 490.55 163.611 490.277 164.156 489.8L166.131 491.299C165.723 491.708 165.246 492.049 164.496 492.389C163.815 492.73 163.134 492.934 162.521 493.002C161.499 493.139 160.409 493.002 159.387 492.526C158.842 492.321 158.229 491.913 157.616 491.504C156.117 490.414 155.299 488.915 155.027 487.075C154.822 485.236 155.436 483.329 156.866 481.353C158.297 479.445 160 478.219 161.908 477.81C163.815 477.401 165.655 477.81 167.358 479.036C168.175 479.582 168.856 480.399 169.333 481.353ZM178.122 480.195L180.234 481.625L168.856 498.657L166.745 497.226L178.122 480.195ZM183.64 484.964C184.594 484.555 185.752 484.759 187.183 485.645C187.251 485.679 187.319 485.73 187.387 485.781C187.455 485.832 187.523 485.883 187.591 485.917C187.668 485.956 187.744 486.015 187.833 486.084C187.861 486.107 187.891 486.13 187.922 486.153C187.937 486.164 187.952 486.176 187.967 486.187L187.98 486.197C188.008 486.217 188.037 486.237 188.068 486.258L186.842 488.234C186.833 488.228 186.824 488.222 186.816 488.216C186.782 488.193 186.75 488.17 186.72 488.147C186.699 488.131 186.678 488.116 186.659 488.101L186.607 488.06C186.518 487.991 186.442 487.931 186.365 487.893C186.331 487.859 186.28 487.825 186.229 487.791C186.178 487.757 186.127 487.723 186.092 487.689C185.411 487.28 184.934 487.212 184.594 487.484C184.253 487.757 183.64 488.574 182.822 489.937L184.934 491.299L183.912 493.002L181.801 491.64L174.988 502.608L172.876 501.314L179.689 490.345L177.917 489.255L178.939 487.552L180.71 488.642L181.937 486.667C182.55 485.781 183.095 485.236 183.64 484.964Z" fill="#FAFAFA"/>
<path d="M319.825 241.275C319.416 240.798 319.075 239.981 318.939 238.89V238.822H314.307C314.307 241.275 315.192 243.182 316.964 244.613C318.735 246.044 321.187 246.725 324.253 246.725C327.251 246.725 329.635 246.044 331.27 244.613C332.973 243.182 333.791 241.411 333.791 239.231C333.791 237.119 333.109 235.484 331.679 234.394C330.725 233.713 329.431 233.1 327.591 232.691L323.436 231.737C321.869 231.397 320.779 231.056 320.302 230.783C319.552 230.375 319.144 229.693 319.144 228.876C319.144 227.99 319.484 227.241 320.302 226.764C321.119 226.287 322.141 226.015 323.436 226.015C324.594 226.015 325.547 226.219 326.365 226.628C327.523 227.173 328.204 228.195 328.273 229.625H332.973C332.905 227.105 331.951 225.197 330.18 223.903C328.409 222.608 326.297 221.927 323.776 221.927C320.779 221.927 318.53 222.676 316.964 224.039C315.397 225.401 314.647 227.173 314.647 229.285C314.647 231.601 315.465 233.304 317.032 234.394C317.985 235.007 319.689 235.62 322.209 236.165L324.73 236.71C326.229 237.051 327.319 237.392 328 237.8C328.681 238.209 329.022 238.822 329.022 239.572C329.022 240.866 328.341 241.82 326.91 242.297C326.229 242.569 325.207 242.706 324.049 242.706C322.005 242.706 320.642 242.229 319.825 241.275Z" fill="#FAFAFA"/>
<path fill-rule="evenodd" clip-rule="evenodd" d="M215.455 244.068C213.684 245.908 211.095 246.793 207.757 246.793C204.418 246.793 201.83 245.908 200.058 244.068C197.674 241.82 196.516 238.618 196.516 234.394C196.516 230.102 197.742 226.832 200.058 224.72C201.83 222.881 204.418 221.995 207.757 221.995C211.095 221.995 213.684 222.881 215.455 224.72C217.839 226.9 218.998 230.102 218.998 234.394C218.998 238.618 217.839 241.82 215.455 244.068ZM212.389 240.526C213.547 239.095 214.092 237.051 214.092 234.394C214.092 231.737 213.547 229.693 212.389 228.263C211.231 226.832 209.732 226.083 207.757 226.083C205.781 226.083 204.282 226.832 203.124 228.263C201.966 229.693 201.353 231.737 201.353 234.394C201.353 237.051 201.966 239.095 203.124 240.526C204.282 241.956 205.849 242.706 207.757 242.706C209.664 242.706 211.231 241.956 212.389 240.526Z" fill="#FAFAFA"/>
<path d="M227.786 237.119V222.676H222.745V237.119C222.745 239.64 223.153 241.616 223.903 242.978C225.401 245.499 228.195 246.793 232.214 246.793C236.234 246.793 239.027 245.567 240.457 242.978C241.207 241.547 241.616 239.64 241.616 237.119V222.676H236.642V237.119C236.642 238.754 236.506 239.912 236.097 240.662C235.484 241.956 234.19 242.637 232.214 242.637C230.238 242.637 228.944 241.956 228.331 240.662C227.99 239.912 227.786 238.754 227.786 237.119Z" fill="#FAFAFA"/>
<path fill-rule="evenodd" clip-rule="evenodd" d="M263.689 224.856C263.144 224.175 262.394 223.562 261.509 223.221C260.623 222.881 259.397 222.676 257.693 222.54H246.453V246.044H251.29V236.847H256.127C257.489 236.847 258.443 237.119 258.92 237.596C259.397 238.073 259.669 239.095 259.669 240.594V242.774C259.669 243.455 259.737 244.136 259.873 244.818C259.912 245.009 259.971 245.222 260.041 245.468C260.095 245.66 260.154 245.873 260.214 246.112H265.664V245.499C265.187 245.158 264.915 244.749 264.779 244.136C264.71 243.727 264.642 243.046 264.642 241.956V240.389C264.642 238.754 264.438 237.46 263.961 236.71C263.484 235.961 262.735 235.28 261.645 234.871C262.939 234.394 263.893 233.577 264.438 232.555C264.983 231.533 265.255 230.375 265.255 229.285C265.255 228.399 265.119 227.581 264.847 226.832C264.574 226.083 264.165 225.47 263.689 224.856ZM251.29 233.1V226.764H256.74C257.693 226.764 258.511 226.9 258.988 227.173C259.873 227.65 260.35 228.603 260.35 230.034C260.35 231.328 259.942 232.214 258.988 232.691C258.443 232.963 257.625 233.1 256.603 233.1H251.29Z" fill="#FAFAFA"/>
<path d="M301.771 222.676H294.686L290.462 241.207L286.17 222.676H279.017V246.18H283.582V226.423L288.01 246.18H292.779L297.207 226.423V246.18H301.771V222.676Z" fill="#FAFAFA"/>
<path d="M305.927 246.18H310.832V222.676H305.927V246.18Z" fill="#FAFAFA"/>
<path d="M340.808 238.89C340.944 239.981 341.285 240.798 341.693 241.275C342.511 242.229 343.873 242.706 345.917 242.706C347.075 242.706 348.097 242.569 348.779 242.297C350.209 241.82 350.891 240.866 350.891 239.572C350.891 238.822 350.55 238.209 349.869 237.8C349.187 237.392 348.097 237.051 346.599 236.71L344.078 236.165C341.557 235.62 339.854 235.007 338.9 234.394C337.333 233.304 336.516 231.601 336.516 229.285C336.516 227.173 337.265 225.401 338.832 224.039C340.399 222.676 342.647 221.927 345.645 221.927C348.165 221.927 350.277 222.608 352.049 223.903C353.82 225.197 354.774 227.105 354.842 229.625H350.141C350.073 228.195 349.392 227.173 348.234 226.628C347.416 226.219 346.462 226.015 345.304 226.015C344.01 226.015 342.988 226.287 342.17 226.764C341.353 227.241 341.012 227.99 341.012 228.876C341.012 229.693 341.421 230.375 342.17 230.783C342.647 231.056 343.737 231.397 345.304 231.737L349.46 232.691C351.299 233.1 352.594 233.713 353.547 234.394C354.978 235.484 355.659 237.119 355.659 239.231C355.659 241.411 354.842 243.182 353.139 244.613C351.504 246.044 349.119 246.725 346.122 246.725C343.056 246.725 340.603 246.044 338.832 244.613C337.061 243.182 336.175 241.275 336.175 238.822H340.808V238.89Z" fill="#FAFAFA"/>
<path d="M363.562 222.676V246.18H358.657V222.676H363.562Z" fill="#FAFAFA"/>
<path fill-rule="evenodd" clip-rule="evenodd" d="M386.248 244.068C384.477 245.908 381.888 246.793 378.55 246.793C375.212 246.793 372.623 245.908 370.852 244.068C368.467 241.82 367.309 238.618 367.309 234.394C367.309 230.102 368.535 226.832 370.852 224.72C372.623 222.881 375.212 221.995 378.55 221.995C381.888 221.995 384.477 222.881 386.248 224.72C388.633 226.9 389.791 230.102 389.791 234.394C389.791 238.618 388.633 241.82 386.248 244.068ZM383.182 240.526C384.341 239.095 384.886 237.051 384.886 234.394C384.886 231.737 384.341 229.693 383.182 228.263C382.024 226.832 380.526 226.083 378.55 226.083C376.574 226.083 375.075 226.832 373.917 228.263C372.759 229.693 372.146 231.737 372.146 234.394C372.146 237.051 372.759 239.095 373.917 240.526C375.075 241.956 376.642 242.706 378.55 242.706C380.457 242.706 382.024 241.956 383.182 240.526Z" fill="#FAFAFA"/>
<path d="M393.47 222.676H398.647L407.981 239.095V222.676H412.545V246.18H407.64L398.034 229.489V246.18H393.47V222.676Z" fill="#FAFAFA"/>
<path d="M375.212 270.569H234.394V274.453H375.212V270.569Z" fill="#FAFAFA"/>
<path d="M206.122 303.474L212.866 323.299L219.543 303.474H224.039V326.91H220.973V307.153L214.297 326.91H211.163L204.418 307.153V307.903C204.418 308.448 204.418 309.333 204.487 310.56C204.555 311.786 204.555 312.603 204.555 313.148V326.978H201.489V303.474H206.122Z" fill="#FAFAFA"/>
<path fill-rule="evenodd" clip-rule="evenodd" d="M237.664 316.623C238.346 316.555 238.754 316.282 238.959 315.805C239.095 315.533 239.163 315.192 239.163 314.715C239.163 313.762 238.822 313.012 238.141 312.603C237.46 312.126 236.438 311.922 235.144 311.922C233.645 311.922 232.555 312.331 231.942 313.148C231.601 313.625 231.397 314.238 231.26 315.124H228.603C228.672 313.012 229.353 311.513 230.647 310.696C231.942 309.878 233.509 309.47 235.212 309.47C237.187 309.47 238.822 309.878 240.117 310.628C241.343 311.377 241.956 312.603 241.956 314.238V324.117C241.956 324.389 242.024 324.662 242.161 324.866C242.297 325.071 242.569 325.139 242.91 325.139H243.319C243.38 325.139 243.455 325.125 243.538 325.11C243.639 325.091 243.751 325.071 243.864 325.071V327.182C243.625 327.251 243.421 327.302 243.251 327.344L243.249 327.345C243.079 327.387 242.944 327.421 242.842 327.455C242.637 327.523 242.297 327.523 241.888 327.523C240.866 327.523 240.185 327.182 239.708 326.501C239.504 326.161 239.299 325.616 239.231 324.934C238.618 325.684 237.8 326.365 236.71 326.91C235.62 327.455 234.394 327.727 233.1 327.727C231.533 327.727 230.238 327.251 229.217 326.297C228.195 325.343 227.718 324.117 227.718 322.686C227.718 321.119 228.195 319.893 229.217 319.007C230.238 318.122 231.533 317.577 233.1 317.372L237.664 316.623ZM231.601 324.389C232.214 324.866 232.895 325.139 233.781 325.139C234.803 325.139 235.757 324.934 236.71 324.457C238.277 323.708 239.095 322.414 239.095 320.642V318.258C238.754 318.462 238.277 318.667 237.732 318.803C237.187 318.939 236.642 319.075 236.097 319.144L234.394 319.348C233.372 319.484 232.555 319.689 232.078 320.029C231.192 320.506 230.715 321.324 230.715 322.414C230.715 323.231 230.988 323.912 231.601 324.389Z" fill="#FAFAFA"/>
<path d="M246.589 303.474H249.382V317.1L256.74 309.81H260.419L253.878 316.146L260.827 326.91H257.148L251.766 318.19L249.382 320.506V326.91H246.589V303.474Z" fill="#FAFAFA"/>
<path fill-rule="evenodd" clip-rule="evenodd" d="M273.567 310.355C274.725 310.9 275.543 311.65 276.156 312.535C276.701 313.421 277.109 314.375 277.314 315.533C277.45 316.35 277.586 317.577 277.586 319.28H265.119C265.187 321.051 265.596 322.414 266.345 323.436C267.095 324.457 268.253 325.002 269.888 325.002C271.387 325.002 272.545 324.526 273.431 323.504C273.908 322.959 274.248 322.277 274.453 321.528H277.246C277.178 322.141 276.905 322.822 276.496 323.64C276.088 324.457 275.611 325.071 275.066 325.547C274.18 326.365 273.158 326.978 271.864 327.251C271.182 327.387 270.433 327.523 269.547 327.523C267.436 327.523 265.664 326.774 264.165 325.207C262.667 323.64 261.985 321.46 261.985 318.667C261.985 315.942 262.735 313.693 264.234 311.99C265.732 310.287 267.64 309.401 270.024 309.401C271.251 309.47 272.477 309.742 273.567 310.355ZM274.589 317.032C274.453 315.805 274.18 314.783 273.771 314.034C273.022 312.672 271.659 311.99 269.888 311.99C268.594 311.99 267.504 312.467 266.618 313.421C265.732 314.375 265.255 315.601 265.187 317.032H274.589Z" fill="#FAFAFA"/>
<path d="M294.073 303.474V317.985C294.073 319.689 294.414 321.119 295.027 322.209C295.981 323.912 297.616 324.798 299.864 324.798C302.589 324.798 304.428 323.844 305.382 322.005C305.927 320.983 306.199 319.689 306.199 317.985V303.474H309.401V316.623C309.401 319.484 308.993 321.732 308.243 323.299C306.813 326.161 304.088 327.523 300.136 327.523C296.185 327.523 293.46 326.092 292.029 323.299C291.28 321.732 290.871 319.552 290.871 316.623V303.474H294.073Z" fill="#FAFAFA"/>
<path d="M316.623 303.474V317.1L323.981 309.81H327.659L321.119 316.146L328.068 326.91H324.389L318.939 318.258L316.555 320.574V326.978H313.762V303.474H316.623Z" fill="#FAFAFA"/>
<path d="M333.041 309.878V312.808C333.246 312.263 333.791 311.513 334.676 310.696C335.562 309.878 336.584 309.47 337.674 309.47H337.946C338.083 309.47 338.287 309.47 338.628 309.538V312.603C338.56 312.603 338.474 312.586 338.389 312.569C338.304 312.552 338.219 312.535 338.151 312.535H337.674C336.243 312.535 335.085 313.012 334.336 313.966C333.586 314.92 333.178 315.942 333.178 317.168V326.978H330.316V309.878H333.041Z" fill="#FAFAFA"/>
<path fill-rule="evenodd" clip-rule="evenodd" d="M350.277 316.623C350.959 316.555 351.367 316.282 351.572 315.805C351.708 315.533 351.776 315.192 351.776 314.715C351.776 313.762 351.436 313.012 350.754 312.603C350.073 312.126 349.051 311.922 347.757 311.922C346.258 311.922 345.168 312.331 344.555 313.148C344.214 313.625 344.01 314.238 343.873 315.124H341.217C341.285 313.012 341.966 311.513 343.26 310.696C344.555 309.878 346.122 309.47 347.825 309.47C349.8 309.47 351.436 309.878 352.73 310.628C353.956 311.377 354.569 312.603 354.569 314.238V324.117C354.569 324.389 354.637 324.662 354.774 324.866C354.91 325.071 355.182 325.139 355.523 325.139H355.932C355.993 325.139 356.068 325.125 356.151 325.11C356.252 325.091 356.364 325.071 356.477 325.071V327.182C356.416 327.2 356.357 327.216 356.301 327.231C356.269 327.24 356.237 327.249 356.206 327.257C356.163 327.268 356.122 327.279 356.082 327.289C356.004 327.309 355.931 327.327 355.864 327.344L355.861 327.345C355.692 327.387 355.557 327.421 355.455 327.455C355.251 327.523 354.91 327.523 354.501 327.523C353.479 327.523 352.798 327.182 352.321 326.501C352.117 326.161 351.912 325.616 351.844 324.934C351.231 325.684 350.414 326.365 349.324 326.91C348.234 327.455 347.007 327.727 345.713 327.727C344.146 327.727 342.852 327.251 341.83 326.297C340.808 325.343 340.331 324.117 340.331 322.686C340.331 321.119 340.808 319.893 341.83 319.007C342.852 318.122 344.146 317.577 345.713 317.372L350.277 316.623ZM344.282 324.389C344.895 324.866 345.577 325.139 346.462 325.139C347.484 325.139 348.438 324.934 349.392 324.457C350.959 323.708 351.776 322.414 351.776 320.642V318.258C351.436 318.462 350.959 318.667 350.414 318.803C349.869 318.939 349.324 319.075 348.779 319.144L347.075 319.348C346.054 319.484 345.236 319.689 344.759 320.029C343.873 320.506 343.397 321.324 343.397 322.414C343.328 323.231 343.669 323.912 344.282 324.389Z" fill="#FAFAFA"/>
<path d="M359.338 303.474H362.268V306.745H359.338V303.474Z" fill="#FAFAFA"/>
<path d="M362.268 309.946H359.338V326.978H362.268V309.946Z" fill="#FAFAFA"/>
<path d="M369.353 309.878H366.628V327.046H369.421V318.122C369.421 316.963 369.489 316.146 369.625 315.533C369.762 314.92 370.102 314.307 370.579 313.762C371.124 313.012 371.805 312.535 372.623 312.331C373.1 312.195 373.645 312.126 374.326 312.126C375.689 312.126 376.574 312.603 377.119 313.693C377.46 314.307 377.596 315.192 377.596 316.214V326.91H380.526V315.942C380.526 314.238 380.321 312.944 379.844 311.99C379.027 310.287 377.392 309.47 374.939 309.47C373.849 309.47 372.895 309.674 371.942 310.151C370.988 310.628 370.17 311.309 369.353 312.331V309.878Z" fill="#FAFAFA"/>
<path fill-rule="evenodd" clip-rule="evenodd" d="M397.966 312.535C397.353 311.65 396.535 310.9 395.377 310.355C394.219 309.742 393.061 309.47 391.835 309.401C389.45 309.401 387.543 310.287 386.044 311.99C384.545 313.693 383.796 315.942 383.796 318.667C383.796 321.46 384.477 323.64 385.976 325.207C387.474 326.774 389.246 327.523 391.358 327.523C392.243 327.523 392.993 327.387 393.674 327.251C394.968 326.978 395.99 326.365 396.876 325.547C397.421 325.071 397.898 324.457 398.307 323.64C398.715 322.822 398.988 322.141 399.056 321.528H396.263C396.058 322.277 395.718 322.959 395.241 323.504C394.355 324.526 393.197 325.002 391.698 325.002C390.063 325.002 388.905 324.457 388.156 323.436C387.406 322.414 386.998 321.051 386.929 319.28H399.397C399.397 317.577 399.26 316.35 399.124 315.533C398.92 314.375 398.511 313.421 397.966 312.535ZM395.582 314.034C395.99 314.783 396.263 315.805 396.399 317.032H386.998C387.066 315.601 387.543 314.375 388.428 313.421C389.314 312.467 390.404 311.99 391.698 311.99C393.47 311.99 394.832 312.672 395.582 314.034Z" fill="#FAFAFA"/>
<path fill-rule="evenodd" clip-rule="evenodd" d="M259.328 342.715H255.718L246.929 366.151H250.2L252.72 359.134H261.985L264.37 366.151H267.844L259.328 342.715ZM257.353 346.258L260.895 356.613H253.538L257.353 346.258Z" fill="#FAFAFA"/>
<path d="M273.771 344.35H270.842V349.255H268.526V351.572H270.842V362.881C270.842 363.971 271.114 364.856 271.591 365.538C272.068 366.219 272.954 366.56 274.316 366.56C274.725 366.56 275.134 366.56 275.474 366.491L276.496 366.287V363.971C276.292 364.039 276.088 364.039 275.951 364.039H275.474C274.998 364.039 274.589 363.971 274.384 363.835C273.976 363.63 273.771 363.221 273.771 362.608V351.436H276.496V349.119H273.771V344.35Z" fill="#FAFAFA"/>
<path d="M282.219 342.647H279.426V366.083H282.287V357.022C282.287 354.774 282.696 353.207 283.718 352.389C284.74 351.572 285.762 351.163 286.988 351.163C288.418 351.163 289.372 351.64 289.917 352.594C290.258 353.207 290.394 354.161 290.394 355.387V366.151H293.324V355.182C293.324 353.479 293.051 352.185 292.574 351.231C291.689 349.528 289.985 348.642 287.533 348.642C286.17 348.642 285.012 348.915 284.058 349.528C283.513 349.869 282.9 350.482 282.219 351.367V342.647Z" fill="#FAFAFA"/>
<path d="M300.545 342.715H297.684V366.151H300.545V342.715Z" fill="#FAFAFA"/>
<path fill-rule="evenodd" clip-rule="evenodd" d="M317.985 351.776C317.372 350.891 316.555 350.141 315.397 349.596C314.238 348.983 313.08 348.71 311.854 348.642C309.47 348.642 307.562 349.528 306.063 351.231C304.564 352.934 303.815 355.182 303.815 357.908C303.815 360.701 304.496 362.881 305.995 364.448C307.494 366.015 309.265 366.764 311.377 366.764C312.263 366.764 313.012 366.628 313.693 366.491C314.988 366.219 316.01 365.606 316.895 364.788C317.44 364.311 317.917 363.698 318.326 362.881C318.735 362.063 319.007 361.382 319.075 360.769H316.282C316.078 361.518 315.737 362.199 315.26 362.744C314.375 363.766 313.217 364.243 311.718 364.243C310.083 364.243 308.925 363.698 308.175 362.676C307.426 361.654 307.017 360.292 306.949 358.521H319.416C319.416 356.818 319.28 355.591 319.144 354.774C318.939 353.616 318.53 352.662 317.985 351.776ZM315.601 353.275C316.01 354.024 316.282 355.046 316.418 356.272H307.017C307.085 354.842 307.562 353.616 308.448 352.662C309.333 351.708 310.423 351.231 311.718 351.231C313.489 351.231 314.852 351.912 315.601 353.275Z" fill="#FAFAFA"/>
<path d="M326.501 344.35H323.572V349.255H321.255V351.572H323.572V362.881C323.572 363.971 323.844 364.856 324.321 365.538C324.798 366.219 325.684 366.56 327.046 366.56C327.455 366.56 327.864 366.56 328.204 366.491L329.226 366.287V363.971C329.022 364.039 328.818 364.039 328.681 364.039H328.204C327.728 364.039 327.319 363.971 327.114 363.835C326.706 363.63 326.501 363.221 326.501 362.608V351.436H329.226V349.119H326.501V344.35Z" fill="#FAFAFA"/>
<path d="M335.017 342.715H332.088V345.985H335.017V342.715Z" fill="#FAFAFA"/>
<path d="M332.088 349.187H335.017V366.219H332.088V349.187Z" fill="#FAFAFA"/>
<path d="M350.686 350.005C351.912 350.959 352.594 352.526 352.866 354.842H350.073C349.937 353.82 349.528 352.934 348.915 352.185C348.302 351.435 347.348 351.163 345.985 351.163C344.146 351.163 342.852 352.049 342.034 353.82C341.489 354.978 341.285 356.409 341.285 358.112C341.285 359.815 341.625 361.246 342.375 362.404C343.124 363.562 344.214 364.175 345.781 364.175C347.007 364.175 347.893 363.835 348.642 363.085C349.324 362.336 349.801 361.382 350.073 360.088H352.866C352.526 362.336 351.776 364.039 350.482 365.061C349.187 366.083 347.552 366.628 345.577 366.628C343.328 366.628 341.557 365.81 340.195 364.175C338.832 362.54 338.219 360.496 338.219 358.044C338.219 355.046 338.968 352.73 340.399 351.027C341.83 349.324 343.737 348.506 345.985 348.506C347.893 348.642 349.46 349.051 350.686 350.005Z" fill="#FAFAFA"/>
</svg>
